<svg width="438" height="351" viewBox="0 0 438 351" fill="none" xmlns="http://www.w3.org/2000/svg">
<path d="M68.131 261.844C69.748 266.273 72.1911 271.18 76.7721 272.284C81.7571 273.484 86.5381 269.415 89.0771 264.965C91.2941 261.08 92.5891 256.559 92.0981 252.113C91.2241 244.189 82.8321 236.744 74.5041 239.187C64.5101 242.12 65.349 254.203 68.131 261.844ZM28.748 257.706C27.509 260.805 27.2531 264.204 27.3481 267.538C27.4441 270.911 27.904 274.331 29.313 277.395C30.726 280.463 33.186 283.154 36.367 284.275C41.222 285.992 46.907 283.614 49.95 279.464C52.992 275.313 53.697 269.798 52.888 264.712C52.201 260.439 50.419 256.184 47.133 253.363C40.875 247.987 31.769 250.156 28.748 257.706ZM115.598 286.614C121.344 286.653 126.79 282.524 128.585 277.061C132.171 266.156 117.867 256.555 108.918 263.187C99.2861 270.324 102.98 286.531 115.598 286.614ZM4.14304 287.301C0.184035 290.961 -0.963944 297.119 0.814056 302.209C2.76606 307.794 8.21605 312.097 14.127 312.275C20.038 312.449 25.9141 308.198 27.1971 302.426C29.7311 291.017 13.784 278.391 4.14304 287.301ZM46.751 302.43C42.939 307.798 39.645 313.948 39.701 320.533C39.762 327.113 44.173 334.028 50.6971 334.937C57.9121 335.941 63.949 329.834 70.738 327.179C75.489 325.319 80.709 325.166 85.75 324.363C90.787 323.559 96.051 321.864 99.206 317.856C102.47 313.697 102.77 307.829 101.418 302.718C99.0881 293.925 92.095 286.515 83.45 283.681C65.64 277.843 55.844 289.639 46.751 302.43Z" fill="#BD9AC8"/>
<path d="M282.357 195.744L69.8961 316.052C61.1251 321.02 58.0391 332.16 63.0071 340.931C67.9751 349.702 79.115 352.788 87.886 347.82L300.343 227.512C309.116 222.544 312.198 211.409 307.235 202.633C302.266 193.862 291.127 190.776 282.357 195.744ZM96.0261 328.691L85.0951 334.88C82.3961 336.414 78.9661 335.463 77.4371 332.759C75.9031 330.06 76.854 326.631 79.558 325.096L90.4891 318.907C93.1921 317.381 96.622 318.329 98.152 321.028C99.681 323.732 98.7301 327.161 96.0261 328.691Z" fill="#3DC9B9"/>
<path d="M309.73 222.231L212.341 277.382C202.284 283.071 189.509 279.534 183.815 269.476L160.645 228.555C154.947 218.498 158.485 205.728 168.542 200.03L265.931 144.887C286.751 133.095 313.189 140.416 324.981 161.234L326.081 163.177C337.873 184 330.548 210.439 309.73 222.231Z" fill="#3DC9B9"/>
<path d="M279.361 125.405L308.088 176.133C313.1 184.978 309.982 196.222 301.137 201.229L215.822 249.544C206.977 254.551 195.733 251.439 190.726 242.594L162.114 192.072C160.558 189.199 164.278 186.317 166.812 188.36L168.807 189.316C170.806 190.933 173.797 189.533 173.81 186.951L173.849 184.017C173.866 181.648 176.439 180.188 178.482 181.396L181.803 183.347C183.842 184.555 186.428 183.091 186.445 180.717L186.48 176.866C186.497 174.493 189.071 173.037 191.109 174.241L194.434 176.197C196.477 177.401 199.059 175.936 199.076 173.567L199.111 169.712C199.128 167.339 201.7 165.883 203.744 167.091L207.065 169.043C209.108 170.251 211.69 168.787 211.706 166.413L211.742 162.562C211.76 160.189 214.332 158.733 216.371 159.937L219.696 161.889C221.751 163.088 224.321 161.632 224.337 159.259L224.373 155.408C224.389 153.035 226.963 151.579 229.018 152.778L232.339 154.73C234.378 155.938 236.956 154.482 236.968 152.109L237.004 148.254C237.02 145.886 239.608 144.42 241.645 145.629L244.97 147.581C247.013 148.789 249.581 147.334 249.599 144.959L249.633 141.104C249.651 138.736 252.237 137.271 254.28 138.475L257.601 140.433C259.644 141.635 262.216 140.18 262.234 137.808L262.264 133.953C262.282 131.585 264.867 130.119 266.907 131.323L269.014 132.561C271.227 133.861 273.974 132.031 273.617 129.483L273.764 127.519C273.316 124.297 277.706 122.591 279.361 125.405Z" fill="white"/>
<path d="M284.964 135.293L296.247 155.222C301.259 164.067 298.141 175.311 289.296 180.318L203.981 228.632C195.136 233.639 183.892 230.527 178.881 221.682L167.715 201.954C166.155 199.085 169.871 196.191 172.409 198.246L174.409 199.202C176.408 200.819 179.39 199.406 179.407 196.837L179.446 193.903C179.463 191.534 182.036 190.078 184.079 191.282L187.4 193.233C189.439 194.428 192.02 192.963 192.042 190.603L192.077 186.748C192.094 184.379 194.667 182.923 196.71 184.127L200.03 186.083C202.065 187.274 204.651 185.813 204.673 183.453L204.707 179.598C204.725 177.229 207.299 175.769 209.34 176.973L212.661 178.929C214.7 180.124 217.282 178.66 217.308 176.299L217.342 172.444C217.356 170.075 219.93 168.619 221.971 169.823L225.292 171.775C227.339 172.966 229.913 171.506 229.933 169.15L229.969 165.295C229.987 162.922 232.559 161.466 234.616 162.665L237.935 164.617C239.974 165.812 242.542 164.356 242.568 161.996L242.604 158.141C242.616 155.772 245.204 154.308 247.245 155.511L250.566 157.467C252.601 158.662 255.173 157.202 255.195 154.842L255.231 150.987C255.247 148.618 257.835 147.159 259.876 148.361L263.197 150.319C265.236 151.509 267.804 150.054 267.83 147.694L267.866 143.839C267.878 141.471 270.464 140.006 272.507 141.21L274.61 142.448C276.823 143.748 279.57 141.918 279.205 139.358L279.366 137.41C278.91 134.173 283.304 132.478 284.964 135.293Z" fill="#B9ADD5"/>
<path d="M290.554 145.169L301.841 165.102C306.847 173.947 303.735 185.191 294.89 190.198L209.575 238.513C200.73 243.52 189.486 240.404 184.475 231.563L173.309 211.835C171.749 208.967 175.461 206.072 178.003 208.128L179.998 209.084C182.002 210.701 184.983 209.288 185.005 206.72L185.04 203.786C185.057 201.413 187.63 199.957 189.673 201.161L192.994 203.117C195.028 204.308 197.614 202.848 197.636 200.488L197.671 196.633C197.688 194.26 200.262 192.808 202.305 194.012L205.624 195.964C207.659 197.159 210.245 195.695 210.271 193.334L210.301 189.479C210.319 187.11 212.893 185.654 214.934 186.858L218.255 188.814C220.288 190.005 222.876 188.544 222.898 186.184L222.936 182.329C222.95 179.956 225.524 178.504 227.565 179.708L230.886 181.659C232.933 182.846 235.507 181.39 235.533 179.029L235.563 175.174C235.581 172.805 238.153 171.349 240.21 172.545L243.529 174.501C245.564 175.696 248.136 174.24 248.158 171.88L248.198 168.025C248.21 165.652 250.797 164.192 252.835 165.396L256.16 167.347C258.195 168.542 260.767 167.086 260.793 164.726L260.825 160.871C260.841 158.502 263.429 157.037 265.47 158.241L268.791 160.197C270.824 161.388 273.398 159.932 273.424 157.576L273.46 153.721C273.472 151.348 276.058 149.888 278.101 151.091L280.204 152.325C282.417 153.629 285.164 151.795 284.803 149.24L284.961 147.288C284.504 144.053 288.898 142.356 290.554 145.169Z" fill="#715EAF"/>
<path d="M296.804 156.2L308.087 176.133C313.099 184.978 309.981 196.222 301.136 201.229L215.821 249.544C206.976 254.551 195.732 251.439 190.725 242.594L179.555 222.87C177.995 219.997 181.711 217.102 184.249 219.158L186.249 220.114C188.248 221.731 191.234 220.318 191.252 217.75L191.287 214.816C191.304 212.447 193.877 210.991 195.92 212.195L199.241 214.147C201.279 215.342 203.861 213.878 203.887 211.517L203.923 207.662C203.939 205.293 206.509 203.837 208.552 205.041L211.875 206.997C213.906 208.188 216.492 206.727 216.518 204.367L216.548 200.512C216.566 198.143 219.14 196.683 221.181 197.891L224.502 199.842C226.541 201.037 229.123 199.573 229.149 197.212L229.183 193.357C229.201 190.988 231.77 189.532 233.812 190.736L237.137 192.692C239.18 193.879 241.758 192.423 241.78 190.062L241.814 186.207C241.828 183.838 244.406 182.378 246.457 183.578L249.776 185.53C251.815 186.725 254.383 185.269 254.411 182.909L254.445 179.054C254.463 176.685 257.044 175.221 259.086 176.424L262.411 178.38C264.446 179.575 267.018 178.115 267.04 175.755L267.076 171.904C267.094 169.531 269.68 168.066 271.717 169.274L275.038 171.226C277.077 172.421 279.645 170.965 279.671 168.605L279.707 164.75C279.723 162.381 282.304 160.916 284.348 162.12L286.457 163.354C288.668 164.658 291.415 162.828 291.05 160.268L291.207 158.317C290.75 155.083 295.143 153.388 296.804 156.2Z" fill="white"/>
<path d="M209.605 264.034L307.495 208.605" stroke="#292D30" stroke-width="3.2598" stroke-miterlimit="1.415" stroke-linecap="round"/>
<path d="M202.004 268.337L200.439 269.224C193.429 273.197 184.523 270.732 180.555 263.717L171.197 247.196" stroke="#292D30" stroke-width="3.2598" stroke-miterlimit="1.415" stroke-linecap="round"/>
<path d="M321.183 277.104L314.69 274.722L312.308 268.228C311.682 266.529 309.278 266.529 308.656 268.228L306.27 274.722L299.781 277.104C298.083 277.73 298.083 280.133 299.781 280.755L306.27 283.141L308.656 289.63C309.278 291.329 311.682 291.329 312.308 289.63L314.69 283.141L321.183 280.755C322.881 280.133 322.881 277.73 321.183 277.104Z" fill="white"/>
<path d="M357.706 236.891L351.215 234.505L348.829 228.016C348.209 226.312 345.805 226.312 345.179 228.016L342.797 234.505L336.304 236.891C334.603 237.513 334.603 239.916 336.304 240.542L342.797 242.924L345.179 249.418C345.805 251.117 348.209 251.117 348.829 249.418L351.215 242.924L357.706 240.542C359.409 239.916 359.409 237.513 357.706 236.891Z" fill="white"/>
<path d="M258.512 1.63C269.524 18.838 287.306 31.585 307.138 36.483C313.737 38.114 321.139 38.792 326.95 35.271C332.761 31.75 335.335 22.618 330.323 18.029C325.064 13.209 315.633 17.363 313.328 24.119C311.026 30.873 313.906 38.345 317.953 44.216C325.536 55.226 337.452 63.153 350.529 65.9C357.488 67.361 365.472 67.136 370.761 62.393C376.056 57.646 376.09 47.324 369.557 44.517C363.69 41.995 356.741 47.332 355.553 53.613C354.367 59.885 357.339 66.218 361.047 71.419C368.828 82.33 380.306 90.549 393.141 94.404C398.262 95.937 403.964 96.754 408.824 94.538C413.692 92.317 416.995 86.115 414.482 81.395C410.993 74.836 399.762 77.462 396.883 84.312C394.006 91.158 397.001 99.046 400.962 105.336C409.05 118.188 421.346 128.349 435.498 133.865" stroke="#292D30" stroke-width="3.2598" stroke-miterlimit="1.415" stroke-linecap="round"/>
</svg>
