<svg width="24" height="25" viewBox="0 0 24 25" fill="none" xmlns="http://www.w3.org/2000/svg">
<path d="M13.6718 21.8646H10.6608C10.4071 20.205 10.4029 19.2094 9.1246 17.9871C8.94212 17.8126 9.37369 16.6946 7.30282 16.6946H6.02265L5.38257 15.4022C4.52022 13.4912 5.07396 9.87788 5.07396 8.11495C5.07396 3.51287 6.30586 1.25586 11.6267 1.25586C18.5704 1.25586 22.0248 5.63017 22.0248 10.2323C22.0248 11.9952 21.6069 13.4912 20.7446 15.4022L20.1045 16.8095H18.8243C16.7534 16.8095 15.6239 17.9871 15.6239 17.9871C14.4612 19.0973 13.6718 20.2907 13.6718 21.8646Z" fill="url(#paint0_linear_15136_1155)"/>
<path d="M14.3679 23.2432H11.2796C11.0338 21.6128 11.0297 19.2802 9.79102 18.0794C11.9442 18.2898 11.9814 17.4288 12.7936 16.8096H19.1899C17.1832 16.8096 15.9292 17.9803 15.9292 17.9803C14.8026 19.071 14.3679 21.697 14.3679 23.2432Z" fill="url(#paint1_linear_15136_1155)"/>
<path d="M11.4714 23.2139H9.52857C9.28794 21.5587 9.28396 19.1908 8.07143 17.9717C7.89834 17.7977 7.00001 16.7972 5.03571 16.7972H3.82143L3.21429 15.3936C2.39632 13.4877 2 11.9956 2 10.2373C2 5.64739 5.45302 1.21387 10.5 1.21387C15.547 1.21387 19 5.64739 19 10.2373C19 11.9956 18.6037 13.4877 17.7857 15.3936L17.1786 16.7972H15.9643C13.9999 16.7972 12.9286 17.9717 12.9286 17.9717C11.8257 19.0789 11.4714 21.6442 11.4714 23.2139Z" fill="url(#paint2_linear_15136_1155)"/>
<path d="M12.6089 7.46915L10.811 4.1946C10.7027 4.00415 10.3002 4.00415 10.1919 4.1946L8.42489 7.31791L5.04339 7.9218C4.80061 7.94963 4.70369 8.23411 4.88348 8.39114L7.31585 10.8605L6.62125 14.4375C6.56485 14.6607 6.80798 14.8454 7.02574 14.7448L10.4682 13.1714L13.8295 14.6377C14.0472 14.7383 14.2903 14.5535 14.234 14.3303L13.5166 10.8605L15.9605 8.49187C16.1403 8.33484 15.8259 7.94963 15.5832 7.9218L12.6089 7.46915Z" fill="url(#paint3_linear_15136_1155)"/>
<path d="M12.2644 7.72521L10.7035 4.79847C10.6162 4.63488 10.3838 4.63488 10.2966 4.79847L8.73561 7.72521L5.7036 8.09567C5.50793 8.11957 5.42982 8.36393 5.57472 8.49881L7.85342 10.6199L7.08512 13.8612C7.03968 14.0529 7.23562 14.2116 7.41112 14.1252L10.5 12.6049L13.5889 14.1252C13.7644 14.2116 13.9603 14.0529 13.9149 13.8612L13.1466 10.6199L15.4253 8.49881C15.5702 8.36393 15.4921 8.11957 15.2964 8.09567L12.2644 7.72521Z" fill="url(#paint4_linear_15136_1155)"/>
<defs>
<linearGradient id="paint0_linear_15136_1155" x1="19.3076" y1="1.48546" x2="19.1175" y2="19.4784" gradientUnits="userSpaceOnUse">
<stop stop-color="#6C4F0B"/>
<stop offset="0.771847" stop-color="#473204"/>
<stop offset="1" stop-color="#CE9A22"/>
</linearGradient>
<linearGradient id="paint1_linear_15136_1155" x1="15.0444" y1="18.1489" x2="13.5851" y2="23.2327" gradientUnits="userSpaceOnUse">
<stop stop-color="#48350B"/>
<stop offset="1" stop-color="#875F08"/>
</linearGradient>
<linearGradient id="paint2_linear_15136_1155" x1="12.3918" y1="-0.608796" x2="12.1567" y2="25.0402" gradientUnits="userSpaceOnUse">
<stop stop-color="#FFE9B6"/>
<stop offset="0.0843215" stop-color="#FFC94C"/>
<stop offset="0.904055" stop-color="#EFA701"/>
<stop offset="1" stop-color="#FFE9B6"/>
</linearGradient>
<linearGradient id="paint3_linear_15136_1155" x1="2.85227" y1="0.860047" x2="15.9552" y2="16.8277" gradientUnits="userSpaceOnUse">
<stop stop-color="white"/>
<stop offset="0.811966" stop-color="white" stop-opacity="0"/>
</linearGradient>
<linearGradient id="paint4_linear_15136_1155" x1="10.5001" y1="4.13826" x2="13.8369" y2="14.1493" gradientUnits="userSpaceOnUse">
<stop stop-color="#271C03"/>
<stop offset="1" stop-color="#4E3805"/>
</linearGradient>
</defs>
</svg>
