<svg width="32" height="19" viewBox="0 0 32 19" fill="none" xmlns="http://www.w3.org/2000/svg">
<g clip-path="url(#clip0_15136_1096)">
<path d="M22.392 16.6783C23.4045 15.6106 26.2125 13.8883 29.2674 16.5129C27.6274 18.3039 24.8114 18.9103 22.392 16.6783Z" fill="#FFCC00"/>
<path d="M22.392 16.6783C23.4045 15.6106 26.2125 13.8883 29.2674 16.5129C27.6274 18.3039 24.8114 18.9103 22.392 16.6783Z" fill="url(#paint0_linear_15136_1096)"/>
<path d="M25.7372 13.8588C26.5635 11.2656 29.288 10.3971 31.4823 11.6898C30.9006 13.9386 28.1795 15.3325 25.7372 13.8588Z" fill="#FFCC00"/>
<path d="M25.7372 13.8588C26.5635 11.2656 29.288 10.3971 31.4823 11.6898C30.9006 13.9386 28.1795 15.3325 25.7372 13.8588Z" fill="url(#paint1_linear_15136_1096)"/>
<path d="M27.8057 10.53C27.456 7.48913 29.4423 5.83088 31.8652 5.98051C32.4252 8.65801 30.3852 10.6459 27.8057 10.53Z" fill="#FFCC00"/>
<path d="M27.8057 10.53C27.456 7.48913 29.4423 5.83088 31.8652 5.98051C32.4252 8.65801 30.3852 10.6459 27.8057 10.53Z" fill="url(#paint2_linear_15136_1096)"/>
<path d="M27.9726 6.58787C26.2297 4.20288 26.568 2.15312 28.9897 0.4375C30.7337 2.82137 30.3954 4.87113 27.9726 6.58787Z" fill="#FFCC00"/>
<path d="M27.9726 6.58787C26.2297 4.20288 26.568 2.15312 28.9897 0.4375C30.7337 2.82137 30.3954 4.87113 27.9726 6.58787Z" fill="url(#paint3_linear_15136_1096)"/>
<path d="M9.60797 16.6783C8.5954 15.6106 5.7874 13.8883 2.73254 16.5129C4.37254 18.3039 7.18854 18.9103 9.60797 16.6783Z" fill="#FFCC00"/>
<path d="M9.60797 16.6783C8.5954 15.6106 5.7874 13.8883 2.73254 16.5129C4.37254 18.3039 7.18854 18.9103 9.60797 16.6783Z" fill="url(#paint4_linear_15136_1096)"/>
<path d="M6.26289 13.8591C5.43546 11.266 2.71089 10.3975 0.516602 11.689C1.09832 13.9379 3.81946 15.3318 6.2606 13.858L6.26289 13.8591Z" fill="#FFCC00"/>
<path d="M6.26289 13.8591C5.43546 11.266 2.71089 10.3975 0.516602 11.689C1.09832 13.9379 3.81946 15.3318 6.2606 13.858L6.26289 13.8591Z" fill="url(#paint5_linear_15136_1096)"/>
<path d="M4.19423 10.53C4.5428 7.48913 2.55652 5.83088 0.133661 5.98051C-0.426339 8.65801 1.61252 10.6459 4.19195 10.53H4.19423Z" fill="#FFCC00"/>
<path d="M4.19423 10.53C4.5428 7.48913 2.55652 5.83088 0.133661 5.98051C-0.426339 8.65801 1.61252 10.6459 4.19195 10.53H4.19423Z" fill="url(#paint6_linear_15136_1096)"/>
<path d="M4.0274 6.58787C5.77025 4.20288 5.43197 2.15312 3.01025 0.4375C1.26625 2.82137 1.60454 4.87113 4.0274 6.58787Z" fill="#FFCC00"/>
<path d="M4.0274 6.58787C5.77025 4.20288 5.43197 2.15312 3.01025 0.4375C1.26625 2.82137 1.60454 4.87113 4.0274 6.58787Z" fill="url(#paint7_linear_15136_1096)"/>
<path d="M15.9999 0.964355C14.6445 0.965176 13.3196 1.36137 12.1927 2.10289C11.0658 2.84442 10.1874 3.89803 9.66847 5.13066C9.14949 6.36329 9.01321 7.71967 9.27684 9.02849C9.54046 10.3373 10.1922 11.5399 11.1497 12.4844C12.3908 13.7072 15.3142 15.4769 15.4879 17.3342C15.5131 17.6121 15.7188 17.8394 15.9999 17.8394C16.2811 17.8394 16.4868 17.6121 16.5119 17.3342C16.6857 15.4769 19.6057 13.7117 20.8468 12.4889C21.8057 11.5448 22.4587 10.3422 22.7233 9.0329C22.9879 7.72362 22.8523 6.3665 22.3336 5.13308C21.8148 3.89966 20.9363 2.84532 19.8089 2.10331C18.6816 1.36131 17.3561 0.964955 15.9999 0.964355Z" fill="url(#paint8_linear_15136_1096)"/>
<path d="M16 10.024C15.3777 10.024 14.7809 9.7807 14.3409 9.34756C13.9009 8.91442 13.6537 8.32696 13.6537 7.71441C13.6537 7.10186 13.9009 6.5144 14.3409 6.08126C14.7809 5.64812 15.3777 5.40479 16 5.40479C16.6131 5.41811 17.1966 5.66724 17.6255 6.09882C18.0543 6.5304 18.2945 7.11012 18.2945 7.71385C18.2945 8.31757 18.0543 8.8973 17.6255 9.32888C17.1966 9.76046 16.6131 10.0096 16 10.0229V10.024Z" fill="white"/>
</g>
<defs>
<linearGradient id="paint0_linear_15136_1096" x1="29.2457" y1="16.748" x2="22.3854" y2="17.0127" gradientUnits="userSpaceOnUse">
<stop stop-color="#FFCC00"/>
<stop offset="1" stop-color="#FE9B21"/>
</linearGradient>
<linearGradient id="paint1_linear_15136_1096" x1="31.4755" y1="11.6965" x2="25.8982" y2="14.2806" gradientUnits="userSpaceOnUse">
<stop stop-color="#FFCC00"/>
<stop offset="1" stop-color="#FE9B21"/>
</linearGradient>
<linearGradient id="paint2_linear_15136_1096" x1="31.7817" y1="5.91976" x2="28.2446" y2="10.8912" gradientUnits="userSpaceOnUse">
<stop stop-color="#FFCC00"/>
<stop offset="1" stop-color="#FE9B21"/>
</linearGradient>
<linearGradient id="paint3_linear_15136_1096" x1="28.936" y1="0.436375" x2="28.4386" y2="6.66114" gradientUnits="userSpaceOnUse">
<stop stop-color="#FFCC00"/>
<stop offset="1" stop-color="#FE9B21"/>
</linearGradient>
<linearGradient id="paint4_linear_15136_1096" x1="2.75426" y1="16.748" x2="9.61451" y2="17.0127" gradientUnits="userSpaceOnUse">
<stop stop-color="#FFCC00"/>
<stop offset="1" stop-color="#FE9B21"/>
</linearGradient>
<linearGradient id="paint5_linear_15136_1096" x1="0.524602" y1="11.6969" x2="6.10187" y2="14.281" gradientUnits="userSpaceOnUse">
<stop stop-color="#FFCC00"/>
<stop offset="1" stop-color="#FE9B21"/>
</linearGradient>
<linearGradient id="paint6_linear_15136_1096" x1="0.218233" y1="5.91976" x2="3.75532" y2="10.8912" gradientUnits="userSpaceOnUse">
<stop stop-color="#FFCC00"/>
<stop offset="1" stop-color="#FE9B21"/>
</linearGradient>
<linearGradient id="paint7_linear_15136_1096" x1="3.06397" y1="0.436375" x2="3.5613" y2="6.66114" gradientUnits="userSpaceOnUse">
<stop stop-color="#FFCC00"/>
<stop offset="1" stop-color="#FE9B21"/>
</linearGradient>
<linearGradient id="paint8_linear_15136_1096" x1="15.9999" y1="0.964355" x2="15.9999" y2="17.8394" gradientUnits="userSpaceOnUse">
<stop stop-color="#FF6122"/>
<stop offset="1" stop-color="#F22411"/>
</linearGradient>
<clipPath id="clip0_15136_1096">
<rect width="32" height="18" fill="white" transform="translate(0 0.213867)"/>
</clipPath>
</defs>
</svg>
