<svg width="125" height="32" viewBox="0 0 125 32" fill="none" xmlns="http://www.w3.org/2000/svg">
<g clip-path="url(#clip0_15127_5248)">
<path d="M124.848 20.177H114.597V18.4688H124.848V20.177Z" fill="#FAFAFA"/>
<path d="M124.848 9.96582V11.6588H123.935C124.642 12.264 125 13.0683 125 14.0795C125 14.8226 124.795 15.4508 124.391 15.964C123.98 16.4773 123.417 16.7377 122.687 16.7377C121.887 16.7377 121.286 16.4619 120.875 15.9027C120.464 15.3435 120.259 14.6158 120.259 13.7118C120.259 12.9841 120.366 12.2946 120.571 11.6511H120.434C119.917 11.6511 119.528 11.812 119.254 12.1261C118.981 12.4402 118.844 12.8998 118.844 13.4897C118.844 14.1714 118.996 14.8762 119.308 15.6269L117.946 16.0942C117.535 15.1673 117.329 14.2251 117.329 13.2522C117.329 12.1721 117.603 11.3524 118.143 10.8008C118.684 10.2493 119.46 9.97348 120.457 9.97348H124.855L124.848 9.96582ZM122.169 11.6205H121.75C121.553 12.1261 121.454 12.7006 121.454 13.3288C121.454 13.865 121.56 14.2864 121.766 14.5851C121.971 14.8839 122.26 15.0371 122.633 15.0371C122.968 15.0371 123.235 14.8992 123.432 14.6234C123.63 14.3476 123.729 14.0029 123.729 13.5892C123.729 13.0147 123.585 12.5398 123.295 12.1721C123.006 11.7967 122.633 11.6128 122.169 11.6128V11.6205Z" fill="#FAFAFA"/>
<path d="M125 3.69174C125 4.71826 124.566 5.56091 123.691 6.21972H124.84V7.92802H114.59V6.21972H118.661C117.733 5.56091 117.268 4.71826 117.268 3.69174C117.268 2.7495 117.618 1.93749 118.319 1.24804C119.019 0.558591 119.962 0.213867 121.149 0.213867C122.337 0.213867 123.257 0.558591 123.95 1.24804C124.65 1.93749 125 2.7495 125 3.69174ZM123.524 4.09009C123.524 3.48491 123.303 2.97932 122.862 2.57331C122.42 2.15965 121.842 1.96047 121.119 1.96047C120.396 1.96047 119.848 2.1673 119.407 2.58097C118.965 2.99464 118.745 3.50023 118.745 4.09009C118.745 4.67995 118.973 5.19321 119.422 5.6222C119.871 6.05119 120.449 6.26569 121.149 6.26569C121.85 6.26569 122.413 6.05119 122.854 5.6222C123.295 5.19321 123.524 4.67995 123.524 4.09009Z" fill="#FAFAFA"/>
<path d="M0 30.1432V25.4242H0.821868V26.0295C1.14148 25.5774 1.54481 25.3477 2.03946 25.3477C2.49605 25.3477 2.88415 25.5162 3.21899 25.861C3.55382 26.198 3.71362 26.6653 3.71362 27.2397C3.71362 27.8143 3.54621 28.2664 3.21899 28.611C2.89176 28.948 2.49605 29.1244 2.03946 29.1244C1.54481 29.1244 1.14148 28.9097 0.821868 28.4885V30.1508H0V30.1432ZM1.8492 28.4043C2.13837 28.4043 2.3819 28.297 2.57975 28.0824C2.77761 27.868 2.87654 27.5846 2.87654 27.2321C2.87654 26.8798 2.77761 26.6117 2.57975 26.3971C2.3819 26.1826 2.13837 26.0754 1.8492 26.0754C1.56003 26.0754 1.31651 26.1826 1.11104 26.4048C0.905576 26.627 0.799038 26.9028 0.799038 27.2474C0.799038 27.5922 0.905576 27.8603 1.11104 28.0824C1.31651 28.297 1.56764 28.4119 1.8492 28.4119V28.4043Z" fill="#FAFAFA"/>
<path d="M8.26435 29.0407H7.4501V28.5963C7.16091 28.9412 6.77281 29.1173 6.28578 29.1173C5.92812 29.1173 5.62372 29.0178 5.3802 28.8186C5.13669 28.6193 5.00732 28.3436 5.00732 27.9836C5.00732 27.5929 5.1443 27.3018 5.41064 27.1027C5.677 26.9034 6.02705 26.8038 6.46841 26.8038C6.81847 26.8038 7.1533 26.8574 7.46531 26.957V26.8881C7.46531 26.6353 7.38921 26.4438 7.23702 26.3136C7.08482 26.1833 6.86414 26.1143 6.58256 26.1143C6.25535 26.1143 5.9129 26.1909 5.55524 26.3443L5.33455 25.6778C5.77591 25.4787 6.23251 25.3789 6.70432 25.3789C7.22941 25.3789 7.61751 25.5093 7.88386 25.7773C8.1502 26.0454 8.27957 26.4209 8.27957 26.911V29.0561L8.26435 29.0407ZM7.46531 27.7307V27.5239C7.2218 27.4244 6.94785 27.3784 6.64345 27.3784C6.38472 27.3784 6.17924 27.432 6.03466 27.5316C5.89006 27.6311 5.81397 27.7767 5.81397 27.953C5.81397 28.1138 5.88245 28.244 6.01182 28.3436C6.1412 28.4432 6.30861 28.4891 6.50647 28.4891C6.78042 28.4891 7.00872 28.4202 7.19136 28.2747C7.37399 28.1368 7.45771 27.953 7.45771 27.7231L7.46531 27.7307Z" fill="#FAFAFA"/>
<path d="M11.1485 29.1244C10.5321 29.1244 10.007 28.9404 9.57324 28.5727L9.96136 28.0211C10.2962 28.3123 10.6767 28.4502 11.0952 28.4502C11.2855 28.4502 11.4453 28.4043 11.5747 28.3124C11.704 28.2204 11.7725 28.0977 11.7725 27.9522C11.7725 27.8143 11.7116 27.7071 11.5823 27.6229C11.4529 27.5386 11.2779 27.5003 11.042 27.5003H10.6006V26.9028H11.042C11.2322 26.9028 11.3844 26.8568 11.4985 26.7726C11.6127 26.6883 11.6736 26.5734 11.6736 26.4354C11.6736 26.3128 11.6203 26.2133 11.5062 26.1367C11.392 26.0601 11.255 26.0218 11.08 26.0218C10.6767 26.0218 10.3418 26.1444 10.0603 26.3894L9.695 25.8686C10.0907 25.5238 10.5778 25.3477 11.1561 25.3477C11.5518 25.3477 11.8714 25.4396 12.1226 25.6234C12.3737 25.8074 12.4955 26.0371 12.4955 26.3205C12.4955 26.7036 12.3052 26.9793 11.9323 27.1402C12.3661 27.2934 12.5868 27.5846 12.5868 28.0211C12.5868 28.3353 12.4498 28.5957 12.1834 28.8102C11.9171 29.0248 11.567 29.132 11.1409 29.132L11.1485 29.1244Z" fill="#FAFAFA"/>
<path d="M14.1316 30.1432V25.4242H14.9535V26.0295C15.2731 25.5774 15.6764 25.3477 16.171 25.3477C16.6276 25.3477 17.0157 25.5162 17.3506 25.861C17.6854 26.198 17.8452 26.6653 17.8452 27.2397C17.8452 27.8143 17.6778 28.2664 17.3506 28.611C17.0233 28.948 16.6276 29.1244 16.171 29.1244C15.6764 29.1244 15.2731 28.9097 14.9535 28.4885V30.1508H14.1316V30.1432ZM15.9808 28.4043C16.27 28.4043 16.5135 28.297 16.7113 28.0824C16.9092 27.868 17.0081 27.5846 17.0081 27.2321C17.0081 26.8798 16.9092 26.6117 16.7113 26.3971C16.5135 26.1826 16.27 26.0754 15.9808 26.0754C15.6916 26.0754 15.4481 26.1826 15.2426 26.4048C15.0372 26.627 14.9306 26.9028 14.9306 27.2474C14.9306 27.5922 15.0372 27.8603 15.2426 28.0824C15.4481 28.297 15.6992 28.4119 15.9808 28.4119V28.4043Z" fill="#FAFAFA"/>
<path d="M22.3957 29.0407H21.5814V28.5963C21.2923 28.9412 20.9043 29.1173 20.4171 29.1173C20.0595 29.1173 19.7552 29.0178 19.5117 28.8186C19.268 28.6193 19.1387 28.3436 19.1387 27.9836C19.1387 27.5929 19.2756 27.3018 19.5421 27.1027C19.8084 26.9034 20.1584 26.8038 20.5999 26.8038C20.9499 26.8038 21.2847 26.8574 21.5966 26.957V26.8881C21.5966 26.6353 21.5206 26.4438 21.3684 26.3136C21.2162 26.1833 20.9956 26.1143 20.714 26.1143C20.3867 26.1143 20.0443 26.1909 19.6867 26.3443L19.466 25.6778C19.9073 25.4787 20.3639 25.3789 20.8358 25.3789C21.3608 25.3789 21.749 25.5093 22.0153 25.7773C22.2816 26.0454 22.411 26.4209 22.411 26.911V29.0561L22.3957 29.0407ZM21.5966 27.7307V27.5239C21.3532 27.4244 21.0793 27.3784 20.7749 27.3784C20.5162 27.3784 20.3106 27.432 20.166 27.5316C20.0215 27.6311 19.9454 27.7767 19.9454 27.953C19.9454 28.1138 20.0139 28.244 20.1432 28.3436C20.2725 28.4432 20.4399 28.4891 20.6379 28.4891C20.9119 28.4891 21.1401 28.4202 21.3227 28.2747C21.5053 28.1368 21.589 27.953 21.589 27.7231L21.5966 27.7307Z" fill="#FAFAFA"/>
<path d="M25.7976 29.1246C25.2193 29.1246 24.7628 28.9406 24.4354 28.573C24.1083 28.2052 23.9485 27.6844 23.9485 27.0179C23.9485 26.8034 23.9485 26.6118 23.9637 26.451C23.9713 26.2901 23.9941 26.114 24.0322 25.9225C24.0626 25.7308 24.1159 25.57 24.1767 25.4245C24.2452 25.2866 24.3289 25.1488 24.4278 25.0186C24.5267 24.8882 24.6637 24.781 24.8237 24.6891C24.9834 24.5972 25.1737 24.5359 25.3867 24.4899L27.3501 24.0762L27.4871 24.7427L25.5237 25.1717C25.1965 25.2407 24.9606 25.3632 24.8237 25.5394C24.6789 25.7155 24.6028 25.9378 24.58 26.1982C24.6865 26.0144 24.8617 25.8536 25.0976 25.7232C25.3335 25.5853 25.6226 25.5241 25.9652 25.5241C26.4293 25.5241 26.8325 25.6925 27.1751 26.0374C27.5099 26.3744 27.6849 26.7958 27.6849 27.2859C27.6849 27.7763 27.5099 28.2282 27.1523 28.5883C26.7945 28.9483 26.3532 29.1323 25.8128 29.1323L25.7976 29.1246ZM25.8128 28.4045C26.1173 28.4045 26.3684 28.2973 26.5586 28.0826C26.7488 27.8682 26.8478 27.6078 26.8478 27.2936C26.8478 26.9796 26.7488 26.7192 26.5434 26.5046C26.338 26.2901 26.0945 26.1829 25.7976 26.1829C25.5008 26.1829 25.2498 26.2901 25.0595 26.5046C24.8693 26.7192 24.7704 26.9873 24.7704 27.3013C24.7704 27.6155 24.8693 27.8759 25.0671 28.0903C25.265 28.3049 25.5161 28.4122 25.8052 28.4122L25.8128 28.4045Z" fill="#FAFAFA"/>
<path d="M30.9038 29.125C30.3558 29.125 29.9069 28.9412 29.5417 28.5734C29.1763 28.2058 28.9937 27.7614 28.9937 27.2329C28.9937 26.7043 29.1763 26.2601 29.5417 25.8923C29.9069 25.5246 30.3634 25.3408 30.9114 25.3408C31.4592 25.3408 31.9083 25.5246 32.2735 25.8923C32.6388 26.2601 32.8214 26.7043 32.8214 27.2329C32.8214 27.7614 32.6388 28.1981 32.2735 28.5657C31.9083 28.9335 31.444 29.1173 30.8962 29.1173L30.9038 29.125ZM30.919 28.4049C31.2462 28.4049 31.5125 28.29 31.7105 28.0679C31.9083 27.8458 32.0072 27.5699 32.0072 27.2406C32.0072 26.9111 31.9007 26.643 31.6953 26.4132C31.4897 26.1911 31.2234 26.0761 30.9038 26.0761C30.5842 26.0761 30.3177 26.1911 30.1199 26.4132C29.9221 26.6353 29.8232 26.9111 29.8232 27.2406C29.8232 27.5699 29.9297 27.8381 30.1351 28.0602C30.3406 28.29 30.6071 28.4049 30.919 28.4049Z" fill="#FAFAFA"/>
<path d="M34.9826 29.0405V26.1294H33.8259V25.417H36.9689V26.1294H35.8122V29.0405H34.9826Z" fill="#FAFAFA"/>
<path d="M38.3005 29.0405V25.417H39.1149V27.1484L40.6824 25.417H41.6489L40.2563 26.9415L41.7706 29.0405H40.7966L39.7083 27.5467L39.1225 28.1672V29.0405H38.3081H38.3005Z" fill="#FAFAFA"/>
<path d="M45.9026 29.0407H45.0885V28.5963C44.7994 28.9412 44.4112 29.1173 43.9242 29.1173C43.5664 29.1173 43.2621 29.0178 43.0186 28.8186C42.7751 28.6193 42.6458 28.3436 42.6458 27.9836C42.6458 27.5929 42.7827 27.3018 43.049 27.1027C43.3153 26.9034 43.6655 26.8038 44.1068 26.8038C44.4568 26.8038 44.7918 26.8574 45.1037 26.957V26.8881C45.1037 26.6353 45.0276 26.4438 44.8755 26.3136C44.7231 26.1833 44.5025 26.1143 44.2209 26.1143C43.8938 26.1143 43.5512 26.1909 43.1936 26.3443L42.9729 25.6778C43.4142 25.4787 43.8709 25.3789 44.3427 25.3789C44.8679 25.3789 45.2559 25.5093 45.5222 25.7773C45.7885 26.0454 45.9179 26.4209 45.9179 26.911V29.0561L45.9026 29.0407ZM45.1037 27.7307V27.5239C44.8602 27.4244 44.5861 27.3784 44.2818 27.3784C44.0231 27.3784 43.8177 27.432 43.6731 27.5316C43.5284 27.6311 43.4523 27.7767 43.4523 27.953C43.4523 28.1138 43.5207 28.244 43.6503 28.3436C43.7796 28.4432 43.947 28.4891 44.1448 28.4891C44.4188 28.4891 44.647 28.4202 44.8298 28.2747C45.0124 28.1368 45.0961 27.953 45.0961 27.7231L45.1037 27.7307Z" fill="#FAFAFA"/>
<path d="M51.9527 29.1244C51.42 29.1244 50.9786 28.9404 50.6286 28.5804C50.2786 28.2204 50.0959 27.776 50.0959 27.2551V27.2397C50.0959 26.7189 50.2709 26.2746 50.6286 25.9069C50.9862 25.5391 51.4277 25.3477 51.9603 25.3477C52.5387 25.3477 53.018 25.5544 53.3985 25.9759L52.8887 26.5273C52.5996 26.2286 52.295 26.0754 51.9527 26.0754C51.6559 26.0754 51.4124 26.1903 51.2146 26.4124C51.0166 26.6347 50.9177 26.9104 50.9177 27.2244V27.2397C50.9177 27.5693 51.0166 27.845 51.222 28.0671C51.4276 28.2894 51.6787 28.4043 51.9983 28.4043C52.3331 28.4043 52.6376 28.2511 52.9344 27.9522L53.4289 28.4425C53.2311 28.6647 53.018 28.8331 52.7898 28.948C52.5615 29.0631 52.2798 29.1244 51.9527 29.1244Z" fill="#FAFAFA"/>
<path d="M57.8428 29.0407H57.0284V28.5963C56.7393 28.9412 56.3511 29.1173 55.8641 29.1173C55.5065 29.1173 55.202 29.0178 54.9585 28.8186C54.715 28.6193 54.5857 28.3436 54.5857 27.9836C54.5857 27.5929 54.7227 27.3018 54.989 27.1027C55.2553 26.9034 55.6054 26.8038 56.0467 26.8038C56.3967 26.8038 56.7317 26.8574 57.0437 26.957V26.8881C57.0437 26.6353 56.9676 26.4438 56.8154 26.3136C56.6632 26.1833 56.4424 26.1143 56.1609 26.1143C55.8337 26.1143 55.4913 26.1909 55.1335 26.3443L54.9129 25.6778C55.3544 25.4787 55.8109 25.3789 56.2826 25.3789C56.8078 25.3789 57.1958 25.5093 57.4621 25.7773C57.7286 26.0454 57.858 26.4209 57.858 26.911V29.0561L57.8428 29.0407ZM57.0437 27.7307V27.5239C56.8002 27.4244 56.5263 27.3784 56.2217 27.3784C55.9631 27.3784 55.7576 27.432 55.613 27.5316C55.4685 27.6311 55.3924 27.7767 55.3924 27.953C55.3924 28.1138 55.4609 28.244 55.5902 28.3436C55.7196 28.4432 55.887 28.4891 56.0848 28.4891C56.3587 28.4891 56.5871 28.4202 56.7698 28.2747C56.9524 28.1368 57.0361 27.953 57.0361 27.7231L57.0437 27.7307Z" fill="#FAFAFA"/>
<path d="M59.5017 29.0405V25.4171H60.3084V27.8455C61.0617 26.7653 61.6325 25.9611 62.0129 25.4171H62.7892V29.0405H61.9901V26.6274L60.278 29.0405H59.5017ZM61.8608 24.743C61.6706 24.9115 61.4347 25.0034 61.1456 25.0034C60.8562 25.0034 60.6204 24.9191 60.4302 24.743C60.2399 24.5668 60.1182 24.3371 60.0725 24.0459L60.5747 23.9463C60.6736 24.2603 60.8562 24.4137 61.1378 24.4137C61.4195 24.4137 61.6097 24.2603 61.701 23.9463L62.1956 24.0459C62.1499 24.3371 62.0358 24.5745 61.8456 24.743H61.8608Z" fill="#FAFAFA"/>
<path d="M65.2776 29.0405V26.1294H64.1208V25.417H67.2638V26.1294H66.1071V29.0405H65.2776Z" fill="#FAFAFA"/>
<path d="M70.1707 29.125C69.6229 29.125 69.1738 28.9412 68.8086 28.5734C68.4433 28.2058 68.2607 27.7614 68.2607 27.2329C68.2607 26.7043 68.4433 26.2601 68.8086 25.8923C69.1738 25.5246 69.6305 25.3408 70.1783 25.3408C70.7263 25.3408 71.1752 25.5246 71.5406 25.8923C71.9058 26.2601 72.0885 26.7043 72.0885 27.2329C72.0885 27.7614 71.9058 28.1981 71.5406 28.5657C71.1752 28.9335 70.7111 29.1173 70.1631 29.1173L70.1707 29.125ZM70.1859 28.4049C70.5133 28.4049 70.7796 28.29 70.9774 28.0679C71.1752 27.8458 71.2741 27.5699 71.2741 27.2406C71.2741 26.9111 71.1676 26.643 70.9622 26.4132C70.7568 26.1911 70.4904 26.0761 70.1707 26.0761C69.8511 26.0761 69.5848 26.1911 69.387 26.4132C69.1892 26.6353 69.0901 26.9111 69.0901 27.2406C69.0901 27.5699 69.1968 27.8381 69.4022 28.0602C69.6077 28.29 69.874 28.4049 70.1859 28.4049Z" fill="#FAFAFA"/>
<path d="M73.6179 29.0405V25.417H75.4672C75.8248 25.417 76.1141 25.5014 76.3272 25.6623C76.5402 25.8231 76.6467 26.0452 76.6467 26.3211C76.6467 26.6964 76.4565 26.9798 76.0685 27.1484C76.563 27.294 76.8141 27.5926 76.8141 28.0524C76.8141 28.3587 76.6924 28.5961 76.4565 28.7725C76.2206 28.9486 75.8933 29.0329 75.49 29.0329H73.6255L73.6179 29.0405ZM74.4246 26.9185H75.2694C75.4368 26.9185 75.5661 26.8802 75.665 26.7959C75.7639 26.7117 75.8096 26.6045 75.8096 26.4743C75.8096 26.3517 75.7639 26.252 75.6802 26.1754C75.5965 26.0988 75.4596 26.0605 75.2846 26.0605H74.4246V26.9185ZM74.4246 28.3893H75.3607C75.5585 28.3893 75.7107 28.3511 75.8172 28.2591C75.9237 28.1749 75.977 28.06 75.977 27.922C75.977 27.7841 75.9237 27.6769 75.8096 27.6003C75.6955 27.5237 75.5357 27.4854 75.3226 27.4854H74.4322V28.3893H74.4246Z" fill="#FAFAFA"/>
<path d="M78.2603 29.0399V28.0977H79.1659V29.0399H78.2603Z" fill="#FAFAFA"/>
<path d="M83.5564 29.0405V25.417H84.3708L85.497 27.0946L86.6309 25.417H87.4452V29.0405H86.6157V26.6275L85.4818 28.2515L84.3555 26.6428V29.0405H83.5488H83.5564Z" fill="#FAFAFA"/>
<path d="M92.1785 29.0407H91.3644V28.5963C91.0751 28.9412 90.687 29.1173 90.2001 29.1173C89.8423 29.1173 89.5379 29.0178 89.2945 28.8186C89.051 28.6193 88.9216 28.3436 88.9216 27.9836C88.9216 27.5929 89.0586 27.3018 89.3249 27.1027C89.5912 26.9034 89.9412 26.8038 90.3827 26.8038C90.7327 26.8038 91.0675 26.8574 91.3796 26.957V26.8881C91.3796 26.6353 91.3035 26.4438 91.1512 26.3136C90.999 26.1833 90.7783 26.1143 90.4968 26.1143C90.1696 26.1143 89.8271 26.1909 89.4695 26.3443L89.2488 25.6778C89.6901 25.4787 90.1468 25.3789 90.6185 25.3789C91.1435 25.3789 91.5318 25.5093 91.7981 25.7773C92.0644 26.0454 92.1937 26.4209 92.1937 26.911V29.0561L92.1785 29.0407ZM91.3796 27.7307V27.5239C91.1359 27.4244 90.862 27.3784 90.5577 27.3784C90.299 27.3784 90.0935 27.432 89.9488 27.5316C89.8042 27.6311 89.7281 27.7767 89.7281 27.953C89.7281 28.1138 89.7966 28.244 89.926 28.3436C90.0555 28.4432 90.2229 28.4891 90.4207 28.4891C90.6946 28.4891 90.9229 28.4202 91.1055 28.2747C91.2883 28.1368 91.372 27.953 91.372 27.7231L91.3796 27.7307Z" fill="#FAFAFA"/>
<path d="M93.8374 30.1432V25.4242H94.6593V26.0295C94.9789 25.5774 95.3823 25.3477 95.8769 25.3477C96.3336 25.3477 96.7216 25.5162 97.0564 25.861C97.3912 26.198 97.5512 26.6653 97.5512 27.2397C97.5512 27.8143 97.3836 28.2664 97.0564 28.611C96.7292 28.948 96.3336 29.1244 95.8769 29.1244C95.3823 29.1244 94.9789 28.9097 94.6593 28.4885V30.1508H93.8374V30.1432ZM95.6867 28.4043C95.9758 28.4043 96.2193 28.297 96.4173 28.0824C96.6151 27.868 96.714 27.5846 96.714 27.2321C96.714 26.8798 96.6151 26.6117 96.4173 26.3971C96.2193 26.1826 95.9758 26.0754 95.6867 26.0754C95.3975 26.0754 95.1541 26.1826 94.9484 26.4048C94.743 26.627 94.6365 26.9028 94.6365 27.2474C94.6365 27.5922 94.743 27.8603 94.9484 28.0824C95.1541 28.297 95.4052 28.4119 95.6867 28.4119V28.4043Z" fill="#FAFAFA"/>
<path d="M99.0808 29.0405V25.417H99.8949V27.1484L101.463 25.417H102.429L101.036 26.9415L102.551 29.0405H101.577L100.489 27.5467L99.9025 28.1672V29.0405H99.0884H99.0808Z" fill="#FAFAFA"/>
<path d="M105.245 29.1244C104.72 29.1244 104.278 28.948 103.928 28.5957C103.578 28.2434 103.403 27.7914 103.403 27.2321C103.403 26.7036 103.571 26.2592 103.898 25.8993C104.233 25.5315 104.651 25.3477 105.161 25.3477C105.709 25.3477 106.128 25.5315 106.432 25.9069C106.736 26.2822 106.889 26.7419 106.889 27.2934C106.889 27.3931 106.889 27.4697 106.873 27.5233H104.233C104.278 27.8143 104.392 28.0364 104.583 28.1973C104.773 28.3583 105.001 28.4425 105.268 28.4425C105.625 28.4425 105.945 28.297 106.242 28.0135L106.721 28.4425C106.348 28.8944 105.861 29.1244 105.252 29.1244H105.245ZM104.217 26.9794H106.067C106.036 26.7036 105.945 26.4737 105.785 26.2899C105.625 26.1061 105.412 26.0218 105.153 26.0218C104.895 26.0218 104.697 26.1137 104.529 26.2899C104.362 26.466 104.263 26.696 104.225 26.9794H104.217Z" fill="#FAFAFA"/>
<path d="M109.027 29.0405V26.1294H107.87V25.417H111.013V26.1294H109.856V29.0405H109.027Z" fill="#FAFAFA"/>
<path d="M112.352 29.0405V25.417H113.159V27.8454C113.912 26.7653 114.483 25.961 114.864 25.417H115.64V29.0405H114.841V26.6275L113.129 29.0405H112.352Z" fill="#FAFAFA"/>
<path d="M117.352 29.0405V25.417H118.174V26.8879H119.757V25.417H120.579V29.0405H119.757V27.5773H118.174V29.0405H117.352Z" fill="#FAFAFA"/>
<path d="M122.299 29.0405V25.417H124.848V26.1294H123.128V29.0405H122.306H122.299Z" fill="#FAFAFA"/>
<path d="M23.3623 0.259766H18.2485V20.2921H32.9127V15.7723H23.3623V0.259766Z" fill="#FAFAFA"/>
<path d="M62.8195 13.3056L57.8732 0.259766H52.219L60.3463 20.4069H65.209L73.3668 0.259766H67.7887L62.8195 13.3056Z" fill="#FAFAFA"/>
<path d="M106.904 0.259766V11.2756L98.2056 0.259766H93.8298V20.2921H98.8601V9.21492L107.672 20.2921H111.911V0.259766H106.904Z" fill="#FAFAFA"/>
<path d="M90.7023 0.259766H75.5813V4.77948H90.7023V0.259766Z" fill="#FAFAFA"/>
<path d="M80.0711 10.6165L75.5813 8.01953V12.5392H90.7023V8.01953H80.0711V10.6165Z" fill="#FAFAFA"/>
<path d="M80.0711 18.3694L75.5813 15.7725V20.2921H90.7023V15.7725H80.0711V18.3694Z" fill="#FAFAFA"/>
<path d="M0 0.259766V4.77948V8.01988V12.5396V15.7723V20.2921H4.48984H15.6079V15.7723H4.48984V12.5396H15.6079V8.01988H4.48984V4.77948H15.6079V0.259766H4.48984H0Z" fill="#FAFAFA"/>
<path d="M35.561 0.259766V4.77948V8.01988V12.5396V15.7723V20.2921H40.0509H50.6819V15.7723H40.0509V12.5396H50.6819V8.01988H40.0509V4.77948H50.6819V0.259766H40.0509H35.561Z" fill="#FAFAFA"/>
</g>
<defs>
<clipPath id="clip0_15127_5248">
<rect width="125" height="31" fill="white" transform="translate(0 0.213867)"/>
</clipPath>
</defs>
</svg>
