<svg width="193" height="187" viewBox="0 0 193 187" fill="none" xmlns="http://www.w3.org/2000/svg">
<path d="M153.11 49.7919L159.18 47.9224L161.201 21.1325C160.665 19.244 161.8 17.2877 163.739 16.7621C165.673 16.2405 167.656 15.7393 168.19 17.6305C168.19 17.6305 166.851 36.5711 166.197 46.0231C165.222 60.1232 155.264 68.2705 145.267 70.9759L50.9713 96.4965C40.9702 99.2046 27.0599 101.231 27.8601 83.743L30.4331 57.4814C29.8996 55.5902 31.0352 53.634 32.971 53.1124C34.9082 52.5868 36.8804 51.5545 37.4165 53.443L34.8772 81.8437L40.2468 80.3914L41.8634 79.9538L43.8046 54.7774C43.2684 52.8889 44.3879 49.8624 46.3264 49.3381C48.2649 48.8138 50.2357 47.7802 50.7719 49.67L48.8657 78.0585L52.6323 77.0384L55.2268 76.3366L57.1532 51.3594C56.617 49.4709 57.7365 46.4457 59.675 45.9201C61.6122 45.3958 63.5843 44.3621 64.1205 46.252L62.2278 74.4427L65.015 73.6881L68.4124 72.7683L70.328 47.9454C69.7919 46.0556 70.91 43.0305 72.8485 42.5062C74.787 41.9805 76.7578 40.9482 77.2953 42.8367L75.4121 70.873L77.4018 70.3352L81.0875 69.3367L83.0004 44.5383C82.4643 42.6484 83.5837 39.6233 85.5209 39.099C87.4594 38.5734 89.4316 37.5411 89.9677 39.4296L88.0858 67.4428L89.7885 66.9822L94.2502 65.7751L96.1928 40.5878C95.6566 38.6993 96.7761 35.6729 98.7146 35.1486C100.652 34.623 102.624 33.5906 103.16 35.4805L101.253 63.8799L102.175 63.6292L107.615 62.158L109.541 37.1699C109.005 35.2814 110.125 32.2562 112.063 31.7306C114 31.2063 115.973 30.1727 116.509 32.0625L114.615 60.2641L120.801 58.5896L122.716 33.7546C122.179 31.8661 123.298 28.8409 125.237 28.3153C127.175 27.791 129.146 26.7587 129.684 28.6472L127.799 56.6957L133.474 55.158L135.389 30.3474C134.852 28.4589 135.972 25.4338 137.909 24.9081C139.848 24.3839 141.82 23.3516 142.356 25.2401L140.474 53.2642L146.102 51.7414L148.056 26.4065C147.519 24.518 148.639 21.4915 150.577 20.9672C152.515 20.4416 154.487 19.4093 155.023 21.2978L153.11 49.7919Z" fill="#8BC6E4"/>
<path d="M80.1681 27.4696C78.6915 26.1482 76.4429 26.2708 75.1289 27.7557L74.7766 28.1507L74.3838 27.7965C72.9208 26.4751 70.6586 26.5977 69.3446 28.0826C68.0306 29.5539 68.1525 31.8289 69.629 33.1504L70.0219 33.5045C70.0219 33.5045 73.5981 38.4633 75.3456 38.2998C77.0795 38.1363 80.4661 32.5509 80.4661 32.5509C81.7801 31.066 81.6582 28.8046 80.1817 27.4832L80.1681 27.4696Z" fill="#C7A3CD"/>
<path d="M0.420776 130.146C0.461415 125.16 5.9883 125.023 5.9883 125.023V159.571H12.5041V127.012H18.0717V159.571H24.5875V125.023H30.155L30.2092 164.298H0.420776C0.420776 164.298 0.420776 130.405 0.420776 130.146Z" fill="white"/>
<path d="M47.3453 143.728C47.3453 144.477 47.0608 145.117 46.4919 145.649C45.9229 146.18 45.2456 146.439 44.4464 146.439C43.6472 146.439 42.9834 146.18 42.428 145.649C41.8726 145.117 41.6017 144.491 41.6017 143.728C41.6017 142.965 41.8726 142.325 42.428 141.752C42.9834 141.194 43.6472 140.908 44.4464 140.908C45.2456 140.908 45.9094 141.194 46.4919 141.752C47.0608 142.311 47.3453 142.978 47.3453 143.728ZM35.2078 164.298V125.023H47.9955V129.764H40.8295V159.626H48.0497V164.298H35.1942H35.2078Z" fill="white"/>
<path d="M70.943 136.685C70.943 139.164 70.7533 141.398 70.374 143.387C69.9947 145.376 69.5613 147.147 69.0465 148.714C68.5317 150.267 68.0034 151.602 67.4751 152.692C66.9468 153.781 66.5133 154.64 66.2018 155.28H58.3178V164.298H52.7502V125.023H69.5071C69.9405 126.754 70.2927 128.552 70.5366 130.432C70.7939 132.312 70.9294 134.396 70.9294 136.685H70.943ZM65.2535 136.685C65.2535 134.096 65.0774 131.78 64.7252 129.751H58.3313V150.594H62.5307C63.1674 149.013 63.7769 147.065 64.373 144.763C64.969 142.447 65.2671 139.763 65.2671 136.685H65.2535Z" fill="white"/>
<path d="M80.3307 164.298C79.8972 163.59 79.3689 162.677 78.7323 161.56C78.0956 160.457 77.486 159.067 76.8899 157.392C76.2939 155.716 75.7927 153.768 75.3863 151.534C74.9664 149.3 74.7632 146.698 74.7632 143.728C74.7632 141.248 74.9528 139.001 75.3321 136.998C75.7114 134.982 76.1584 133.211 76.7003 131.671C77.2286 130.132 77.7705 128.811 78.2988 127.694C78.8271 126.59 79.2606 125.691 79.5721 125.023H90.653V129.764H83.2432C82.6065 131.344 82.0105 133.293 81.4415 135.622C80.8726 137.952 80.5881 140.663 80.5881 143.741C80.5881 147.569 80.9132 150.771 81.5634 153.318C82.2137 155.879 82.9316 157.977 83.7309 159.626H90.7749V164.298H80.3578H80.3307Z" fill="white"/>
<path d="M110.959 129.751H105.215V164.298H99.6477V129.751H93.9583V125.023H110.959V129.751Z" fill="white"/>
<path d="M146.234 144.068C146.234 147.038 146.03 149.64 145.611 151.874C145.191 154.108 144.689 156.07 144.107 157.732C143.511 159.408 142.901 160.797 142.265 161.901C141.628 163.004 141.1 163.917 140.666 164.639H128.583C128.149 163.931 127.621 163.018 126.984 161.901C126.348 160.797 125.738 159.408 125.142 157.732C124.546 156.056 124.031 154.122 123.598 151.901C123.286 150.212 123.083 148.332 123.002 146.262H120.875V164.298H115.307V125.023H120.875V141.534H123.069C123.151 140.036 123.313 138.646 123.544 137.366C123.936 135.336 124.397 133.551 124.939 132.012C125.467 130.473 126.009 129.151 126.537 128.034C127.066 126.931 127.499 126.032 127.811 125.364H141.438C141.709 126.045 142.129 126.931 142.685 128.034C143.24 129.138 143.768 130.473 144.283 132.012C144.798 133.551 145.245 135.322 145.651 137.339C146.044 139.355 146.247 141.589 146.247 144.068H146.234ZM140.49 144.068C140.49 140.99 140.206 138.279 139.637 135.949C139.068 133.62 138.445 131.671 137.767 130.091H131.482C130.845 131.671 130.249 133.62 129.68 135.949C129.111 138.279 128.827 140.99 128.827 144.068C128.827 147.869 129.152 151.043 129.802 153.618C130.452 156.193 131.17 158.304 131.969 159.953H137.307C138.092 158.304 138.824 156.193 139.501 153.618C140.178 151.043 140.504 147.855 140.504 144.068H140.49Z" fill="white"/>
<path d="M162.76 129.751H159.143C158.629 130.609 158.168 131.712 157.748 133.047C157.328 134.382 156.989 135.813 156.705 137.325C156.434 138.851 156.217 140.39 156.082 141.943C155.946 143.496 155.892 144.94 155.933 146.248V164.285H150.189V145.635C150.189 142.665 150.392 140.049 150.812 137.802C151.232 135.554 151.734 133.592 152.316 131.944C152.912 130.295 153.522 128.906 154.145 127.775C154.781 126.645 155.31 125.732 155.743 125.01H168.301V164.285H162.733V129.737L162.76 129.751Z" fill="white"/>
<path d="M186.724 125.023H192.291V129.969V164.298H186.724V142.883L180.208 160.906V164.298H174.64V125.023H180.208V147.842L186.724 129.86V125.023Z" fill="white"/>
<path fill-rule="evenodd" clip-rule="evenodd" d="M83.6629 28.2869C83.6494 27.0609 84.706 26.7748 85.3562 26.7067C89.5827 26.3388 93.9717 25.8893 97.2228 25.3444C105.893 23.9276 114.481 24.3635 117.163 19.5683C118.694 16.83 112.368 11.9803 118.992 0.509766C118.992 0.509766 126.537 9.43279 130.533 23.9957C130.913 25.358 131.251 26.7612 131.563 28.1916C132.674 33.3683 131.956 38.1363 130.032 42.2096C128.921 44.5527 132.362 44.9069 132.105 42.9452C131.861 41.0516 134.15 39.9618 134.692 42.8362C136.426 52.1134 136.819 64.6056 133.364 76.1442C130.493 85.762 125.304 82.8876 125.643 84.7131C126.957 91.9196 127.472 98.0908 127.756 101.973C128.176 107.545 121.674 108.036 120.78 103.377C120.238 100.57 117.637 93.241 115.47 90.026C111.027 83.4325 106.245 81.3891 99.8644 84.3453C93.5518 87.2742 94.9064 95.7477 94.6355 98.4177C94.2291 102.396 89.3118 103.159 87.7268 98.7175C86.5619 95.4207 86.6567 84.7131 76.673 86.0481C68.1117 87.1925 68.5452 100.884 68.044 104.575C67.4209 109.18 60.729 109.262 60.8509 103.744C61.3386 79.6999 65.1857 77.1251 68.1795 71.7168C68.3691 71.3626 68.7078 70.6815 67.5292 70.8177C57.4779 71.9348 45.1507 61.268 43.62 52.5902C41.4932 40.4931 48.5508 31.6382 48.5508 31.6382C50.1358 39.8255 51.7884 55.3829 70.9836 64.592C78.0819 67.9978 85.8845 69.0331 92.6848 68.2293C106.922 66.5537 115.659 59.5107 116.581 56.827C116.852 56.0641 116.919 54.4429 114.901 55.0696C112.083 55.9551 109.157 56.3365 106.258 56.1594C96.1256 55.5055 85.2208 51.9091 77.9735 41.5284C77.8245 41.3105 76.9575 39.7574 77.7026 39.3623C80.7234 37.7821 83.7171 31.9106 83.6765 28.3005L83.6629 28.2869ZM135.518 73.6376C135.843 72.3571 137.103 72.7113 137.374 72.7385C150.744 73.8147 152.14 90.571 146.532 90.1759C142.088 89.8762 141.194 80.6671 139.189 80.8442C137.225 81.0213 135.369 81.1575 133.649 81.2665C133.202 81.2937 132.728 80.8987 133.27 79.9314C133.825 78.9506 134.353 77.7245 134.814 76.1579C135.058 75.3269 135.288 74.4823 135.505 73.6376H135.518ZM108.29 5.01895C108.29 5.01895 114.887 11.8849 115.158 17.8109C115.294 20.7398 106.258 22.8922 105.12 20.7671C103.982 18.6419 105.459 11.4354 108.29 5.03259V5.01895Z" fill="#FFCC01"/>
<path d="M8.05887 181.167L7.74902 181.763L7.6143 181.912L7.37183 182.305L7.70861 182.942L8.42258 181.885L8.05887 181.167Z" fill="white"/>
<path d="M40.2281 183.389H38.9349V183.917H40.2281V183.389Z" fill="white"/>
<path d="M33.7754 183.402H32.105H31.9164L33.3309 183.646C33.4925 183.605 33.6407 183.524 33.7754 183.402Z" fill="white"/>
<path d="M66.9146 176.466H66.928V176.127L66.6182 176.466H66.9146Z" fill="white"/>
<path d="M65.6348 176.466H65.9581L65.6348 176.127V176.466Z" fill="white"/>
<path d="M72.3704 176.48H72.9631V175.829L72.3704 176.48Z" fill="white"/>
<path d="M72.9631 180.611H72.3704L72.8958 181.194L72.3704 181.749H72.9631V181.262L72.9092 181.194L72.9631 181.126V180.611Z" fill="white"/>
<path d="M94.6922 179.907L93.9782 180.015V180.476H94.5171L94.8269 179.988L94.6922 179.907Z" fill="white"/>
<path d="M94.5036 179.324H93.9782V179.487L94.6922 179.907L94.8539 179.88L94.5036 179.311V179.324Z" fill="white"/>
<path d="M93.4528 179.744L93.6549 180.07L93.9647 180.015V179.487L93.7088 179.338L93.4528 179.744Z" fill="white"/>
<path d="M96.2818 180.462H96.6725V179.311H96.2818V180.462Z" fill="white"/>
<path d="M97.5481 179.311H97.1574V180.462H97.5481V179.311Z" fill="white"/>
<path d="M99.2994 180.462H99.8382V180.029V180.002L99.1242 179.893L98.9895 179.975L99.2994 180.462Z" fill="white"/>
<path d="M99.2994 179.311H99.291L98.9491 179.866L99.1242 179.893L99.8382 179.46V179.297H99.3077L99.2994 179.311Z" fill="white"/>
<path d="M99.8382 180.002V180.029L100.162 180.083L100.35 179.772L100.081 179.338L99.8382 179.487V180.002Z" fill="white"/>
<path d="M107.708 179.905L108.594 179.352V179.311H107.971L107.961 179.324H107.952L107.557 179.88L107.708 179.905Z" fill="white"/>
<path d="M107.934 180.476H108.594V180.042L107.716 179.909L107.584 179.988L107.934 180.476Z" fill="white"/>
<path d="M108.958 179.785L108.967 179.773L108.662 179.352L108.621 179.379L108.608 179.365V180.056L108.77 180.083L108.976 179.81L108.958 179.785Z" fill="white"/>
<path d="M106.021 179.324H105.631V180.476H106.021V179.324Z" fill="white"/>
<path d="M114.683 182.21H114.695L115.141 181.18H114.454L114.104 182.237H114.672L114.683 182.21Z" fill="white"/>
<path d="M119.547 182.21H119.978L119.6 181.153H119.089L119.547 182.21Z" fill="white"/>
<path d="M139.039 179.717C138.689 179.609 138.285 179.568 137.854 179.568L137.8 179.921C138.258 179.921 138.676 179.853 139.039 179.717Z" fill="white"/>
<path d="M144.118 182.224H144.124L144.576 181.18H143.889L143.539 182.237H144.112L144.118 182.224Z" fill="white"/>
<path d="M149.992 184.527H151.339L147.189 175.328H145.896L141.761 184.527H143.108L144.112 182.237H143.539L143.889 181.18H144.576L146.556 176.669L146.287 176.073H146.812L146.556 176.669L148.523 181.18H144.576L144.124 182.224H148.981L148.523 181.167H149.035L149.412 182.224H148.981L149.992 184.527Z" fill="white"/>
<path d="M148.981 182.224H149.412L149.035 181.167H148.523L148.981 182.224Z" fill="white"/>
<path d="M146.556 176.669L146.812 176.073H146.287L146.556 176.669Z" fill="white"/>
<path d="M175.317 176.466H175.641L175.317 176.127V176.466Z" fill="white"/>
<path fill-rule="evenodd" clip-rule="evenodd" d="M40.2281 183.389H38.9349V176.48H34.9205L34.8531 178.417C34.8261 179.067 34.7857 179.69 34.7318 180.286C34.678 180.882 34.5971 181.424 34.4894 181.898C34.3816 182.373 34.2334 182.765 34.0448 183.077C33.964 183.213 33.8697 183.321 33.7754 183.402H32.105H31.9164L33.3309 183.646C33.4925 183.605 33.6407 183.524 33.7754 183.402H38.9214L38.9349 183.389V183.917H40.2281V183.389ZM40.2416 175.341V183.389H41.5752V186.545H40.3628V184.54H32.8324V186.545H31.6066V183.389H32.1184C32.3744 183.362 32.5899 183.253 32.7785 183.036C32.9941 182.779 33.1692 182.413 33.3039 181.953C33.4251 181.478 33.5194 180.937 33.5868 180.313C33.6407 179.69 33.6946 179.013 33.7215 178.295L33.8158 175.341H40.2416ZM8.05887 181.167L7.74902 181.763L7.6143 181.912L7.37183 182.305L7.70861 182.942L8.42258 181.885L8.05887 181.167ZM8.05887 181.167L11.1034 175.328H12.3966L8.32827 182.901C8.01843 183.483 7.66821 183.917 7.26408 184.201C6.85994 184.5 6.42886 184.662 5.95737 184.689C5.48587 184.716 5.01436 184.635 4.54287 184.418L4.87965 183.362C5.33767 183.524 5.75531 183.565 6.1325 183.483C6.50969 183.402 6.85993 183.104 7.16977 182.603L7.37183 182.278L3.69421 175.301H5.09519L8.05887 181.14V181.167ZM26.1507 184.635C25.4502 184.635 24.8036 184.513 24.2108 184.283C23.6181 184.052 23.0927 183.714 22.6617 183.294C22.2306 182.874 21.8803 182.373 21.6378 181.804C21.3953 181.235 21.2741 180.611 21.2741 179.934C21.2741 179.257 21.3953 178.634 21.6378 178.065C21.8803 177.496 22.2171 176.994 22.6617 176.574C23.0927 176.154 23.6047 175.816 24.1974 175.585C24.7901 175.355 25.4367 175.233 26.1507 175.233C26.8647 175.233 27.4843 175.355 28.0771 175.585C28.6698 175.816 29.1817 176.141 29.6128 176.574C30.0574 176.994 30.3941 177.496 30.6366 178.065C30.8791 178.634 31.0003 179.257 31.0003 179.948C31.0003 180.639 30.8791 181.262 30.6366 181.831C30.3941 182.4 30.0574 182.901 29.6128 183.321C29.1683 183.741 28.6563 184.08 28.0771 184.31C27.4843 184.54 26.8512 184.662 26.1507 184.662V184.635ZM166.602 184.635C165.901 184.635 165.254 184.513 164.662 184.283C164.069 184.052 163.544 183.714 163.112 183.294C162.681 182.874 162.345 182.373 162.089 181.804C161.846 181.235 161.725 180.611 161.725 179.934C161.725 179.257 161.846 178.634 162.089 178.065C162.331 177.496 162.668 176.994 163.112 176.574C163.544 176.154 164.069 175.816 164.662 175.585C165.254 175.355 165.901 175.233 166.615 175.233C167.329 175.233 167.962 175.355 168.541 175.585C169.134 175.816 169.646 176.141 170.077 176.574C170.522 176.994 170.858 177.496 171.101 178.065C171.343 178.634 171.465 179.257 171.465 179.948C171.465 180.639 171.343 181.262 171.101 181.831C170.858 182.4 170.522 182.901 170.077 183.321C169.633 183.741 169.121 184.08 168.541 184.31C167.949 184.54 167.315 184.662 166.615 184.662L166.602 184.635ZM58.5759 184.635C57.8754 184.635 57.2423 184.513 56.6495 184.283C56.0568 184.052 55.5449 183.727 55.1138 183.294C54.6827 182.874 54.3459 182.373 54.1035 181.804C53.861 181.235 53.7397 180.611 53.7397 179.921C53.7397 179.23 53.861 178.606 54.1035 178.037C54.3459 177.468 54.6827 176.967 55.1273 176.547C55.5584 176.127 56.0702 175.789 56.663 175.558C57.2557 175.328 57.8889 175.206 58.5894 175.206C59.2899 175.206 59.95 175.328 60.5427 175.572C61.1354 175.816 61.6473 176.168 62.0649 176.642L61.2162 177.468C60.866 177.103 60.4753 176.832 60.0443 176.642C59.6132 176.466 59.1417 176.371 58.6432 176.371C58.1448 176.371 57.6464 176.452 57.2153 176.629C56.7707 176.805 56.3935 177.048 56.0702 177.36C55.7469 177.672 55.5044 178.051 55.3158 178.484C55.1407 178.918 55.0465 179.392 55.0465 179.893C55.0465 180.395 55.1407 180.869 55.3158 181.302C55.491 181.736 55.7469 182.115 56.0702 182.427C56.3935 182.738 56.7707 182.982 57.2153 183.158C57.6598 183.334 58.1313 183.416 58.6432 183.416C59.1551 183.416 59.5997 183.321 60.0443 183.145C60.4753 182.969 60.866 182.684 61.2162 182.318L62.0649 183.145C61.6473 183.619 61.1354 183.971 60.5427 184.215C59.95 184.459 59.2899 184.581 58.5759 184.581V184.635ZM139.43 179.88C139.301 179.828 139.172 179.776 139.043 179.736C139.064 179.727 139.086 179.719 139.107 179.711C139.134 179.7 139.161 179.69 139.188 179.677C139.592 179.501 139.902 179.243 140.131 178.904C140.36 178.566 140.467 178.173 140.467 177.739C140.467 177.252 140.319 176.845 140.05 176.493C139.78 176.141 139.417 175.87 138.959 175.653C138.501 175.436 137.989 175.314 137.423 175.26C136.857 175.22 136.278 175.26 135.672 175.382C135.065 175.504 134.486 175.734 133.934 176.046L134.351 177.13C134.756 176.886 135.187 176.696 135.631 176.574C136.076 176.452 136.52 176.398 136.938 176.398C137.355 176.398 137.733 176.466 138.07 176.574C138.406 176.683 138.676 176.845 138.864 177.076C139.066 177.306 139.161 177.577 139.161 177.902C139.161 178.335 138.999 178.661 138.676 178.904C138.352 179.148 137.894 179.27 137.315 179.27H135.362V180.327H137.396C138.07 180.327 138.595 180.449 138.972 180.693C139.349 180.937 139.538 181.289 139.538 181.763C139.538 182.156 139.417 182.481 139.174 182.738C138.932 183.009 138.608 183.199 138.204 183.334C137.787 183.47 137.356 183.524 136.871 183.524C136.399 183.524 135.914 183.443 135.429 183.28C134.944 183.131 134.513 182.887 134.109 182.576L133.651 183.551C134.109 183.89 134.607 184.147 135.133 184.323C135.658 184.5 136.197 184.594 136.736 184.635C137.275 184.662 137.787 184.635 138.285 184.527C138.77 184.432 139.215 184.256 139.605 184.025C139.982 183.795 140.292 183.511 140.521 183.158C140.75 182.806 140.858 182.413 140.858 181.966C140.858 181.492 140.723 181.072 140.481 180.72C140.225 180.354 139.875 180.083 139.43 179.88ZM189.166 184.527H187.805L186.795 182.224H187.226L186.849 181.167H186.337L186.795 182.224H181.938L182.39 181.18H181.703L181.352 182.237H181.926L180.921 184.527H179.574L183.71 175.328H185.003L189.166 184.527ZM181.926 182.237H181.932L181.938 182.224H181.932L181.926 182.237ZM107.934 180.476H108.594V180.042L107.716 179.909L107.584 179.988L107.934 180.476ZM108.594 179.352L107.708 179.905L107.557 179.88L107.952 179.324H107.961L107.971 179.311H108.594V179.352ZM106.021 179.324H107.952L107.961 179.311H107.971L110.831 175.328H112.232L108.967 179.773L108.662 179.352L108.621 179.379L108.608 179.365V180.056L108.77 180.083L108.976 179.81L112.353 184.472L116.475 175.314H117.768L121.931 184.513H120.557L119.547 182.21H119.978L119.6 181.153H119.089L119.547 182.21H114.695L115.141 181.18H119.089L117.122 176.669L117.378 176.073H116.852L117.122 176.669L115.141 181.18H114.454L114.104 182.237H114.672L113.673 184.513H110.885L107.931 180.476H106.021V179.324ZM106.021 179.324V175.328H104.742V184.527H106.021V180.476H105.631V179.324H106.021ZM114.672 182.237L114.683 182.21H114.695L114.683 182.237H114.672ZM108.976 179.81L108.985 179.799L108.967 179.773L108.958 179.785L108.976 179.81ZM70.0534 176.466H66.928V176.127L66.6182 176.466H66.9146V184.527H65.6348V176.466H65.9581L65.6348 176.127V176.466H62.5095V175.328H70.0534V176.466ZM13.9189 184.527H12.437L15.7644 179.799L12.6526 175.328H14.1613L16.5457 178.688L18.9436 175.328H20.4658L17.3675 179.744L20.7083 184.527H19.1591L16.5323 180.855L13.9189 184.527ZM82.0562 184.527H80.8573V175.328H82.1505V182.427L87.5659 175.328H88.7649V184.527H87.4851V177.441L82.0562 184.527ZM94.5036 179.324H93.9782V179.487L94.6922 179.907L93.9782 180.015V180.476H94.5171L94.8269 179.988L94.6922 179.907L94.8539 179.88L94.5036 179.311H96.2684V175.314H97.5481V179.311H97.1574V180.462H97.5481V179.311H99.291L98.9491 179.866L99.1242 179.893L98.9895 179.975L99.2994 180.462H97.5616V184.513H96.2818V180.462H96.6725V179.311H96.2818V180.462H94.5306L91.971 184.513H90.4353L93.4528 179.731L90.6508 175.314H92.0519L94.5036 179.311V179.324ZM99.3077 179.297L101.765 175.314H103.166L100.364 179.758L103.381 184.513H101.859L99.2994 180.462H99.8382V180.029L100.162 180.083L100.35 179.772L100.081 179.338L99.8382 179.487V180.002L99.1242 179.893L99.8382 179.46V179.297H99.3077ZM99.3077 179.297L99.2994 179.311H99.291L99.2994 179.297H99.3077ZM72.9631 184.527H71.6564V175.328H75.2263C76.0346 175.328 76.7082 175.45 77.2739 175.707C77.8397 175.965 78.2708 176.33 78.5807 176.818C78.8905 177.306 79.0387 177.875 79.0387 178.539C79.0387 179.203 78.8905 179.771 78.5807 180.259C78.2708 180.733 77.8397 181.099 77.2739 181.357C76.7082 181.614 76.0211 181.749 75.2263 181.749H72.9631V181.262L72.9092 181.194L72.9631 181.126V180.611H72.3704L72.8958 181.194L72.3704 181.749H72.9631V184.527ZM156.862 184.527H152.942V175.328H159.839V176.452H154.235V179.081H157.091C158.182 179.081 159.004 179.311 159.57 179.758C160.135 180.219 160.418 180.869 160.418 181.749C160.418 182.63 160.108 183.334 159.502 183.809C158.882 184.296 158.007 184.527 156.862 184.527ZM144.124 182.224H144.118L144.112 182.237H144.118L144.124 182.224ZM154.235 183.497H156.808C157.562 183.497 158.142 183.348 158.532 183.064C158.923 182.779 159.112 182.345 159.112 181.776C159.112 180.666 158.344 180.124 156.808 180.124H154.235V183.497ZM26.1507 183.47C26.6626 183.47 27.1206 183.389 27.5517 183.213C27.9828 183.036 28.36 182.793 28.6698 182.467C28.9931 182.142 29.2356 181.777 29.4107 181.343C29.5859 180.909 29.6801 180.449 29.6801 179.934C29.6801 179.419 29.5859 178.959 29.4107 178.525C29.2356 178.092 28.9796 177.726 28.6698 177.401C28.3465 177.076 27.9828 176.832 27.5517 176.656C27.1206 176.479 26.6491 176.398 26.1507 176.398C25.6523 176.398 25.1673 176.479 24.7362 176.656C24.3052 176.832 23.928 177.076 23.6047 177.401C23.2813 177.726 23.0254 178.092 22.8503 178.525C22.6751 178.959 22.5808 179.419 22.5808 179.934C22.5808 180.449 22.6751 180.909 22.8503 181.343C23.0254 181.777 23.2813 182.142 23.6047 182.467C23.928 182.793 24.3052 183.036 24.7362 183.213C25.1673 183.389 25.6388 183.47 26.1507 183.47ZM166.602 183.47C167.113 183.47 167.571 183.389 168.003 183.213C168.434 183.036 168.811 182.793 169.121 182.467C169.444 182.142 169.686 181.777 169.862 181.343C170.037 180.909 170.131 180.449 170.131 179.934C170.131 179.419 170.037 178.959 169.862 178.525C169.686 178.092 169.43 177.726 169.121 177.401C168.797 177.076 168.434 176.832 168.003 176.656C167.571 176.479 167.1 176.398 166.602 176.398C166.103 176.398 165.618 176.479 165.187 176.656C164.756 176.832 164.379 177.076 164.055 177.401C163.732 177.726 163.49 178.092 163.301 178.525C163.126 178.959 163.032 179.419 163.032 179.934C163.032 180.449 163.126 180.909 163.301 181.343C163.476 181.777 163.732 182.142 164.055 182.467C164.379 182.793 164.756 183.036 165.187 183.213C165.618 183.389 166.09 183.47 166.602 183.47ZM184.639 176.073H184.114L184.37 176.669L182.403 181.18H186.337L184.37 176.669H184.383L184.639 176.073ZM47.5026 182.115C47.3005 182.115 47.0984 182.061 46.9098 181.966C46.7212 181.871 46.5865 181.722 46.4653 181.533C46.3575 181.343 46.3036 181.14 46.3036 180.896C46.3036 180.652 46.3575 180.462 46.4653 180.286C46.5731 180.11 46.7212 179.961 46.9098 179.853C47.0984 179.744 47.287 179.69 47.5026 179.69C47.7181 179.69 47.9202 179.744 48.0953 179.853C48.2704 179.961 48.4186 180.097 48.5129 180.286C48.6207 180.462 48.6746 180.666 48.6746 180.896C48.6746 181.126 48.6207 181.343 48.5129 181.533C48.4051 181.722 48.2704 181.858 48.0953 181.966C47.9202 182.061 47.7181 182.115 47.5026 182.115ZM127.656 182.115C127.441 182.115 127.252 182.061 127.064 181.966C126.875 181.871 126.74 181.722 126.619 181.533C126.511 181.343 126.457 181.14 126.457 180.896C126.457 180.652 126.511 180.462 126.619 180.286C126.727 180.11 126.875 179.961 127.064 179.853C127.252 179.744 127.441 179.69 127.656 179.69C127.872 179.69 128.074 179.744 128.249 179.853C128.424 179.961 128.572 180.097 128.667 180.286C128.774 180.462 128.828 180.666 128.828 180.896C128.828 181.126 128.774 181.343 128.667 181.533C128.559 181.722 128.424 181.858 128.249 181.966C128.074 182.061 127.872 182.115 127.656 182.115ZM72.3704 176.48H72.9631V180.598H75.1859C76.0211 180.598 76.6543 180.422 77.0853 180.056C77.5164 179.69 77.732 179.189 77.732 178.539C77.732 177.888 77.5164 177.374 77.0853 177.021C76.6543 176.656 76.0211 176.48 75.1859 176.48H72.9631V175.829L72.3704 176.48ZM93.4528 179.744L93.6549 180.07L93.9647 180.015V179.487L93.7088 179.338L93.4528 179.744ZM139.039 179.717C138.689 179.609 138.285 179.568 137.854 179.568L137.8 179.921C138.258 179.921 138.676 179.853 139.039 179.717Z" fill="white"/>
<path d="M176.597 176.466V176.127L176.287 176.466H176.597Z" fill="white"/>
<path d="M176.597 176.466H179.736V175.328H172.192V176.466H175.317V176.127L175.641 176.466H175.317V184.527H176.597V176.466H176.287L176.597 176.127V176.466Z" fill="white"/>
<path d="M184.383 176.669L184.639 176.073H184.114L184.37 176.669H184.383Z" fill="white"/>
<path d="M182.39 181.18H181.703L181.352 182.237H181.926L181.932 182.224H181.938L182.39 181.18Z" fill="white"/>
<path d="M186.795 182.224H187.226L186.849 181.167H186.337L186.795 182.224Z" fill="white"/>
<path d="M117.122 176.669L117.378 176.073H116.852L117.122 176.669Z" fill="white"/>
</svg>
