<svg width="190" height="226" viewBox="0 0 190 226" fill="none" xmlns="http://www.w3.org/2000/svg">
<path d="M118.011 162.579L167.359 87.2089C168.417 85.597 167.179 83.4475 165.288 83.6108C153.934 84.5876 143.632 90.7908 137.29 100.471L99.2315 158.577L118.011 162.579Z" fill="#292D30"/>
<path d="M129.207 162.219C123.93 152.919 112.292 149.767 103.213 155.159H103.212C94.1254 160.553 91.0271 172.469 96.3096 181.776C101.589 191.072 113.226 194.226 122.304 188.834C131.392 183.441 134.49 171.524 129.207 162.219ZM108.014 163.657C112.384 161.062 117.955 162.463 120.673 166.736L120.927 167.159C123.536 171.752 122.007 177.662 117.502 180.336C112.993 183.013 107.202 181.436 104.589 176.836C101.983 172.241 103.509 166.334 108.013 163.657H108.014Z" fill="#FAFAFA" stroke="#292D30"/>
<path d="M187.604 123.308H187.604L99.4785 129.739L93.8857 147.375L161.358 142.443C172.567 141.62 182.807 135.629 189.181 126.157C190.039 124.882 189.058 123.201 187.604 123.308Z" fill="#FAFAFA" stroke="#292D30"/>
<path d="M125.9 132.192C127.39 131.416 129.215 132.022 129.974 133.547C130.736 135.073 130.143 136.94 128.65 137.716C127.16 138.492 125.335 137.886 124.576 136.362C123.815 134.836 124.41 132.971 125.9 132.192Z" stroke="#292D30" stroke-miterlimit="1.415" stroke-linecap="round"/>
<path d="M104.949 119.481C99.6702 110.184 88.0316 107.031 78.9521 112.42C69.8655 117.816 66.7682 129.733 72.0479 139.037C77.3275 148.336 88.9665 151.491 98.0459 146.099C107.133 140.703 110.233 128.785 104.95 119.48L104.949 119.481ZM83.7539 120.918C88.124 118.325 93.6957 119.726 96.415 123.997L96.6689 124.42C99.2756 129.015 97.7492 134.924 93.2451 137.597V137.598C88.7335 140.277 82.9427 138.697 80.332 134.098L80.3311 134.099C77.7218 129.506 79.2507 123.593 83.7529 120.918H83.7539Z" fill="#FAFAFA" stroke="#292D30"/>
<path d="M140.724 14.0356C140.724 21.6724 146.776 27.865 154.244 27.865C161.711 27.865 167.761 21.6724 167.761 14.0356C167.761 6.39987 161.711 0.209473 154.244 0.209473C146.776 0.209473 140.724 6.39987 140.724 14.0356Z" fill="#DDEDF5"/>
<path d="M96.0181 225.209C85.6266 222.545 76.329 215.677 70.5867 206.429C68.6771 203.353 67.1073 199.703 67.8891 196.151C68.6698 192.595 72.7837 189.731 75.8986 191.497C79.1711 193.35 78.6769 198.853 75.7033 201.174C72.7287 203.497 68.5363 203.304 64.9396 202.248C58.2066 200.269 52.2789 195.564 48.7326 189.383C46.8481 186.094 45.6292 181.997 47.1063 178.499C48.5823 174.998 53.7099 173.22 56.1913 176.061C58.4229 178.618 56.928 183.06 54.0058 184.734C51.0825 186.407 47.4408 185.973 44.2374 184.976C37.517 182.881 31.516 178.446 27.4649 172.577C25.847 170.235 24.4913 167.478 24.783 164.625C25.0746 161.775 27.6083 159.036 30.373 159.509C34.2152 160.169 34.7827 166.326 31.8584 168.958C28.9331 171.585 24.5118 171.405 20.7272 170.466C12.9883 168.543 5.88722 164.024 0.787853 157.769" stroke="#292D30" stroke-miterlimit="1.415" stroke-linecap="round"/>
<path d="M168.002 42.1248C167.97 38.249 171.016 35.081 174.806 35.0488C178.595 35.0167 181.693 38.1326 181.724 42.0084C181.756 45.8842 178.709 49.0522 174.92 49.0844C171.13 49.1165 168.033 46.0006 168.002 42.1248Z" stroke="#DDEDF5" stroke-width="2" stroke-miterlimit="1.415"/>
</svg>
