<svg width="196" height="52" viewBox="0 0 196 52" fill="none" xmlns="http://www.w3.org/2000/svg">
<g clip-path="url(#clip0_15017_4995)">
<path d="M17.9998 13.1789C17.2925 12.5459 16.2057 12.6063 15.5734 13.3137L15.4022 13.5054L15.2104 13.3343C14.5031 12.7012 13.4163 12.7617 12.784 13.469C12.1509 14.1763 12.2114 15.2631 12.9187 15.8955L13.1105 16.0666L13.1084 16.0694C13.1084 16.0694 14.8324 18.4388 15.6703 18.3611C16.5082 18.2834 18.1359 15.6047 18.1359 15.6047C18.769 14.8974 18.7085 13.8106 18.0012 13.1782L17.9998 13.1789Z" fill="#C7A3CD"/>
<path fill-rule="evenodd" clip-rule="evenodd" d="M19.6853 13.5714C19.6777 12.9824 20.1884 12.8435 20.5012 12.8167C22.5345 12.6421 24.6502 12.4221 26.2147 12.1671C30.3906 11.4852 34.5259 11.6983 35.8161 9.40384C36.5536 8.093 33.5085 5.77033 36.698 0.276079C36.698 0.276079 40.3294 4.55298 42.2555 11.5244C42.4363 12.1802 42.6026 12.8497 42.749 13.5309C43.2831 16.013 42.9394 18.2944 42.0108 20.2445C41.4774 21.3643 43.1319 21.5341 43.0116 20.5985C42.8948 19.6898 43.998 19.1695 44.2571 20.5449C45.093 24.9854 45.28 30.9718 43.6193 36.4929C42.2342 41.0997 39.7404 39.7195 39.9012 40.5945C40.5363 44.0452 40.7824 47.003 40.9213 48.8617C41.1199 51.5273 37.9923 51.7631 37.5586 49.5353C37.2967 48.1887 36.0429 44.6783 35.0009 43.142C32.8617 39.9876 30.5555 39.0032 27.4843 40.4213C24.442 41.8263 25.0964 45.8832 24.9651 47.159C24.7692 49.0672 22.3998 49.4281 21.6402 47.3006C21.0759 45.7196 21.1253 40.5918 16.3137 41.231C12.1914 41.7782 12.4018 48.3344 12.1598 50.1024C11.858 52.3075 8.63904 52.3474 8.69334 49.7023C8.93049 38.1839 10.7809 36.9548 12.2203 34.3675C12.3138 34.1991 12.476 33.8747 11.9062 33.9372C7.06562 34.4713 1.12526 29.3654 0.391133 25.2061C-0.631005 19.4108 2.76535 15.1689 2.76535 15.1689C3.5311 19.0932 4.32296 26.5437 13.5717 30.9526C16.99 32.5817 20.7493 33.0759 24.0233 32.6924C30.8772 31.8888 35.0854 28.5144 35.5294 27.2325C35.6566 26.8647 35.6903 26.088 34.7204 26.3911C33.3663 26.8139 31.9502 27.0008 30.561 26.9115C25.6793 26.5987 20.429 24.8768 16.9385 19.9029C16.867 19.8012 16.4498 19.0526 16.8079 18.8663C18.2645 18.1075 19.7073 15.2988 19.6853 13.5714ZM44.6606 35.2879C44.8139 34.6761 45.4271 34.8466 45.5563 34.8569C51.9929 35.3738 52.6666 43.397 49.9645 43.2107C47.826 43.0636 47.3957 38.6533 46.432 38.74C45.4834 38.8259 44.5946 38.8905 43.7636 38.9386C43.5471 38.951 43.3168 38.7654 43.5842 38.298C43.8516 37.8305 44.1052 37.2408 44.33 36.4929C44.4503 36.0935 44.5603 35.6914 44.662 35.2879H44.6606ZM31.5481 2.42965C31.5481 2.42965 34.7266 5.72015 34.8551 8.55354C34.9184 9.9558 30.572 10.9883 30.0208 9.96749C29.4695 8.94673 30.185 5.49813 31.5488 2.42965H31.5481Z" fill="#FFCC01"/>
</g>
<path d="M145.955 31.7336H142.108V4.74608H145.955V16.0915H147.472C147.528 15.0618 147.631 14.107 147.799 13.2271C148.071 11.8323 148.389 10.606 148.763 9.54823C149.129 8.49045 149.503 7.58246 149.868 6.81486C150.233 6.05663 150.533 5.43879 150.748 4.98011H160.165C160.352 5.44815 160.642 6.05663 161.026 6.81486C161.41 7.5731 161.775 8.49045 162.131 9.54823C162.487 10.606 162.795 11.8229 163.076 13.2083C163.348 14.5938 163.488 16.129 163.488 17.8326C163.488 19.8733 163.348 21.6613 163.058 23.1964C162.767 24.7316 162.421 26.0796 162.009 27.2216C161.597 28.373 161.176 29.3278 160.736 30.0861C160.296 30.8443 159.931 31.4715 159.631 31.9676H151.282C150.982 31.4808 150.617 30.8536 150.177 30.0861C149.737 29.3278 149.316 28.373 148.904 27.2216C148.492 26.0702 148.136 24.741 147.837 23.2152C147.621 22.0544 147.481 20.7626 147.425 19.3397H145.955V31.7336ZM83.3027 31.7336H62.718C62.718 31.7336 62.718 8.44365 62.718 8.26579C62.7461 4.8397 66.5654 4.74608 66.5654 4.74608V28.4853H71.068V6.1128H74.9153V28.4853H79.4179V4.74608H83.2652L83.3027 31.7336ZM95.5935 7.99432H90.6416V28.5134H95.6403V31.7242H86.7568V4.73674H95.6029V7.99432H95.5935ZM125.052 7.99432H119.932C119.492 9.08018 119.08 10.4188 118.687 12.0195C118.294 13.6202 118.097 15.483 118.097 17.5986C118.097 20.229 118.322 22.4288 118.771 24.1793C119.22 25.9392 119.717 27.3808 120.269 28.5134H125.137V31.7242H117.929C117.629 31.2374 117.264 30.6103 116.824 29.8427C116.384 29.0844 115.963 28.1296 115.56 26.9782C115.148 25.8268 114.802 24.4882 114.512 22.953C114.222 21.4179 114.081 19.6299 114.081 17.5892C114.081 15.8856 114.212 14.341 114.474 12.965C114.737 11.5795 115.045 10.3626 115.42 9.30484C115.785 8.24706 116.159 7.33906 116.524 6.57147C116.89 5.81324 117.189 5.19543 117.404 4.73674H125.062V7.99432H125.052ZM139.103 7.99432H135.134V31.7336H131.287V7.99432H127.355V4.73674H139.103V7.99432ZM186.947 31.7336H183.099V4.74608H186.947V20.4256L191.449 8.06922V4.73674H195.296V31.7242H191.449V17.0089L186.947 29.4027V31.7242V31.7336ZM178.737 31.7336H174.89V7.99432H172.39C172.035 8.58405 171.716 9.3423 171.426 10.2597C171.136 11.177 170.902 12.1599 170.705 13.199C170.518 14.2474 170.368 15.3052 170.275 16.3723C170.181 17.4395 170.144 18.4317 170.172 19.3304V31.7242H166.203V18.9091C166.203 16.8685 166.343 15.0712 166.633 13.5266C166.924 11.9821 167.27 10.6341 167.682 9.50144C168.094 8.36877 168.515 7.41396 168.955 6.637C169.395 5.86005 169.76 5.23287 170.059 4.73674H178.737V31.7242V31.7336ZM102.727 31.7336H98.8792V4.74608H110.459C110.758 5.93492 111.002 7.17056 111.179 8.46236C111.357 9.75417 111.442 11.1864 111.442 12.759C111.442 14.4627 111.31 15.9979 111.058 17.3646C110.796 18.7313 110.487 19.9482 110.14 21.0247C109.785 22.0918 109.42 23.0092 109.054 23.7581C108.689 24.5069 108.39 25.0967 108.175 25.5367H102.727V31.7336ZM157.609 8.22834H153.275C152.835 9.3142 152.424 10.6528 152.03 12.2535C151.637 13.8543 151.441 15.7171 151.441 17.8326C151.441 20.4443 151.665 22.6254 152.115 24.3946C152.564 26.1638 153.06 27.6148 153.612 28.7475H157.291C157.834 27.6148 158.34 26.1638 158.808 24.3946C159.266 22.6254 159.5 20.435 159.5 17.8326C159.5 15.7171 159.304 13.8543 158.911 12.2535C158.518 10.6528 158.087 9.3142 157.619 8.22834H157.609ZM107.145 7.99432H102.727V22.3165H105.628C106.068 21.2307 106.49 19.892 106.901 18.3101C107.313 16.7187 107.519 14.8746 107.519 12.759C107.519 10.9804 107.398 9.38909 107.154 7.99432H107.145ZM95.1348 17.5986C95.1348 18.1135 94.9382 18.5534 94.5451 18.9185C94.1519 19.2836 93.6745 19.4614 93.1316 19.4614C92.5887 19.4614 92.1206 19.2836 91.7368 18.9185C91.353 18.5534 91.1658 18.1228 91.1658 17.5986C91.1658 17.0744 91.353 16.6344 91.7368 16.2413C92.1206 15.8575 92.5793 15.6609 93.1316 15.6609C93.6839 15.6609 94.1519 15.8575 94.5451 16.2413C94.9382 16.6251 95.1348 17.0838 95.1348 17.5986Z" fill="#715EAF"/>
<path d="M89.9396 45.0821H89.041V45.4472H89.9396V45.0821H90.8757V47.2633H90.0332V45.8778H84.8005V47.2633H83.9486V45.0821H84.3043C84.4822 45.0634 84.632 44.9886 84.763 44.8388C84.9128 44.6609 85.0345 44.4082 85.1281 44.0899C85.2124 43.7623 85.2779 43.3878 85.3247 42.9572C85.3621 42.5266 85.3996 42.0586 85.4183 41.5625L85.4838 39.5218H89.949V45.0915L89.9396 45.0821ZM67.5858 43.547L67.3705 43.9589L67.2769 44.0618L67.1084 44.3333L67.3424 44.7733L67.8385 44.0431L67.5858 43.547L69.7014 39.5124H70.6L67.773 44.7452C67.5577 45.1477 67.3143 45.4472 67.0335 45.6438C66.7527 45.8497 66.4531 45.9621 66.1255 45.9808C65.7978 45.9995 65.4702 45.9434 65.1426 45.7936L65.3766 45.0634C65.6949 45.1758 65.9851 45.2038 66.2472 45.1477C66.5093 45.0915 66.7527 44.8856 66.968 44.5392L67.1084 44.3146L64.5529 39.4937H65.5264L67.5858 43.5282V43.547ZM80.1575 45.9434C79.6707 45.9434 79.2214 45.8591 78.8095 45.7C78.3976 45.5408 78.0325 45.3068 77.733 45.0166C77.4334 44.7265 77.1901 44.3801 77.0216 43.9869C76.8531 43.5938 76.7688 43.1632 76.7688 42.6951C76.7688 42.2271 76.8531 41.7965 77.0216 41.4033C77.1901 41.0102 77.4241 40.6638 77.733 40.3736C78.0325 40.0834 78.3883 39.8494 78.8002 39.6903C79.212 39.5312 79.6613 39.4469 80.1575 39.4469C80.6536 39.4469 81.0842 39.5312 81.4961 39.6903C81.9079 39.8494 82.2637 40.0741 82.5632 40.3736C82.8721 40.6638 83.1062 41.0102 83.2747 41.4033C83.4432 41.7965 83.5274 42.2271 83.5274 42.7045C83.5274 43.1819 83.4432 43.6125 83.2747 44.0057C83.1062 44.3988 82.8721 44.7452 82.5632 45.0354C82.2543 45.3255 81.8986 45.5596 81.4961 45.7187C81.0842 45.8778 80.6442 45.9621 80.1575 45.9621V45.9434ZM177.754 45.9434C177.267 45.9434 176.818 45.8591 176.406 45.7C175.994 45.5408 175.629 45.3068 175.33 45.0166C175.03 44.7265 174.796 44.3801 174.618 43.9869C174.45 43.5938 174.366 43.1632 174.366 42.6951C174.366 42.2271 174.45 41.7965 174.618 41.4033C174.787 41.0102 175.021 40.6638 175.33 40.3736C175.629 40.0834 175.994 39.8494 176.406 39.6903C176.818 39.5312 177.267 39.4469 177.764 39.4469C178.26 39.4469 178.7 39.5312 179.102 39.6903C179.514 39.8494 179.87 40.0741 180.169 40.3736C180.478 40.6638 180.712 41.0102 180.881 41.4033C181.049 41.7965 181.134 42.2271 181.134 42.7045C181.134 43.1819 181.049 43.6125 180.881 44.0057C180.712 44.3988 180.478 44.7452 180.169 45.0354C179.86 45.3255 179.505 45.5596 179.102 45.7187C178.69 45.8778 178.25 45.9621 177.764 45.9621L177.754 45.9434ZM102.689 45.9434C102.202 45.9434 101.762 45.8591 101.351 45.7C100.939 45.5408 100.583 45.3162 100.283 45.0166C99.9839 44.7265 99.7498 44.3801 99.5813 43.9869C99.4128 43.5938 99.3286 43.1632 99.3286 42.6858C99.3286 42.2084 99.4128 41.7778 99.5813 41.3846C99.7498 40.9915 99.9839 40.6451 100.293 40.3549C100.592 40.0647 100.948 39.8307 101.36 39.6715C101.772 39.5124 102.212 39.4282 102.699 39.4282C103.185 39.4282 103.644 39.5124 104.056 39.6809C104.468 39.8494 104.823 40.0928 105.114 40.4204L104.524 40.9914C104.281 40.7387 104.009 40.5515 103.71 40.4204C103.41 40.2987 103.082 40.2332 102.736 40.2332C102.39 40.2332 102.043 40.2894 101.744 40.4111C101.435 40.5328 101.173 40.7013 100.948 40.9166C100.723 41.1319 100.555 41.394 100.424 41.6935C100.302 41.9931 100.237 42.3207 100.237 42.667C100.237 43.0134 100.302 43.341 100.424 43.6406C100.546 43.9401 100.723 44.2022 100.948 44.4175C101.173 44.6328 101.435 44.8013 101.744 44.923C102.053 45.0447 102.38 45.1009 102.736 45.1009C103.092 45.1009 103.401 45.0354 103.71 44.9137C104.009 44.792 104.281 44.5954 104.524 44.3427L105.114 44.9137C104.823 45.2413 104.468 45.4847 104.056 45.6532C103.644 45.8217 103.185 45.9059 102.689 45.9059V45.9434ZM158.592 42.5547C158.686 42.5828 158.78 42.6202 158.873 42.6577C159.182 42.7981 159.426 42.9853 159.603 43.2381C159.772 43.4814 159.866 43.7716 159.866 44.0993C159.866 44.4082 159.791 44.6796 159.632 44.923C159.472 45.1664 159.257 45.363 158.995 45.5221C158.724 45.6812 158.415 45.8029 158.078 45.8685C157.731 45.9433 157.376 45.9621 157.001 45.9434C156.627 45.9153 156.252 45.8497 155.887 45.7281C155.522 45.6064 155.176 45.4285 154.857 45.1945L155.176 44.5205C155.457 44.7358 155.756 44.9043 156.093 45.0073C156.43 45.1196 156.767 45.1758 157.095 45.1758C157.432 45.1758 157.731 45.1383 158.021 45.0447C158.302 44.9511 158.527 44.8201 158.695 44.6328C158.864 44.455 158.948 44.2303 158.948 43.9589C158.948 43.6312 158.817 43.3878 158.555 43.2193C158.293 43.0508 157.928 42.9666 157.46 42.9666H156.046V42.2365H157.404C157.806 42.2365 158.124 42.1522 158.349 41.9837C158.574 41.8152 158.686 41.5905 158.686 41.291C158.686 41.0663 158.621 40.8791 158.48 40.72C158.349 40.5608 158.162 40.4485 157.928 40.3736C157.694 40.2987 157.432 40.2519 157.142 40.2519C156.851 40.2519 156.542 40.2894 156.234 40.3736C155.925 40.4579 155.625 40.5889 155.344 40.7574L155.054 40.0086C155.438 39.7933 155.84 39.6341 156.262 39.5499C156.683 39.4656 157.085 39.4375 157.479 39.4656C157.872 39.5031 158.227 39.5873 158.546 39.7371C158.864 39.8869 159.117 40.0741 159.304 40.3175C159.491 40.5608 159.594 40.8417 159.594 41.1787C159.594 41.4782 159.519 41.7497 159.36 41.9837C159.201 42.2177 158.986 42.3956 158.705 42.5173C158.667 42.536 158.63 42.5453 158.592 42.5641V42.5547ZM193.443 45.8685H192.488L191.786 44.2771H192.086L191.824 43.547H191.468L191.786 44.2771H188.407L187.705 45.8685H186.769L189.643 39.5124H190.541L193.434 45.8685H193.443ZM136.987 43.0696H137.446V42.77L136.828 42.6764L137.446 42.2926V42.2645H137.006L136.725 42.6577L136.838 42.6764L136.744 42.7326L136.987 43.0696H135.658V45.8685H134.769V39.5124H135.658V42.2739H135.387V43.0696H135.658V42.2739H137.006L139 39.5124H139.974L137.699 42.5921L140.058 45.831L142.922 39.5031H143.821L146.713 45.8591H145.759L145.057 44.2678H145.356L145.094 43.5376H144.738L145.057 44.2678H141.677L140.975 45.8591H139.038L136.978 43.0602L136.987 43.0696ZM110.665 40.2987H108.484V45.8685H107.594V40.2987H107.819L107.594 40.0647V40.2987H105.423V39.5124H110.665V40.2987ZM71.6671 45.8685H70.6281L72.9402 42.6015L70.7779 39.5124H71.8263L73.4831 41.8339L75.1494 39.5124H76.2072L74.0542 42.5641L76.3757 45.8685H75.2992L73.4738 43.3317L71.6578 45.8685H71.6671ZM119.005 45.8685H118.172V39.5124H119.071V44.4175L122.834 39.5124H123.667V45.8685H122.778V40.9727L119.005 45.8685ZM186.881 40.2987H184.7V45.8685H183.811V40.2987H184.035L183.811 40.0647V40.2987H181.639V39.5124H186.881V40.2987ZM127.655 42.2739H127.29V42.3862L127.786 42.6764L127.29 42.7513V43.0696H127.664L127.879 42.7326L127.786 42.6764L127.898 42.6577L127.655 42.2645H128.881V39.5031H129.77V42.2645H129.499V43.0602H129.77V42.2645H130.987L132.7 39.5031H133.674L131.727 42.5734L133.824 45.8591H132.766L130.987 43.0602H131.362V42.7419L130.865 42.667L131.362 42.3675V42.2552H130.987L130.744 42.6483L130.865 42.667L130.772 42.7232L130.987 43.0602H129.78V45.8591H128.89V43.0602H129.162V42.2645H128.89V43.0602H127.673L125.895 45.8591H124.828L126.925 42.5547L124.977 39.5031H125.951L127.655 42.2645V42.2739ZM112.687 45.8685H111.779V39.5124H114.259C114.821 39.5124 115.289 39.5967 115.682 39.7745C116.075 39.9524 116.375 40.2051 116.59 40.5421C116.805 40.8791 116.908 41.2723 116.908 41.731C116.908 42.1896 116.805 42.5828 116.59 42.9198C116.375 43.2474 116.075 43.5002 115.682 43.678C115.289 43.8559 114.812 43.9495 114.259 43.9495H112.687V45.8778V45.8685ZM170.986 45.8685H168.262V39.5124H173.055V40.2894H169.161V42.1054H171.145C171.904 42.1054 172.475 42.2645 172.868 42.5734C173.261 42.8917 173.458 43.341 173.458 43.9495C173.458 44.5579 173.242 45.0447 172.821 45.3723C172.39 45.7093 171.782 45.8685 170.986 45.8685ZM167.167 45.8685H166.212L165.51 44.2771H165.81L165.548 43.547H165.192L165.51 44.2771H162.131L161.429 45.8685H160.493L163.367 39.5124H164.265L167.148 45.8685H167.167ZM89.041 45.0821V40.3081H86.2514L86.2046 41.6467C86.1859 42.096 86.1578 42.5266 86.1204 42.9385C86.0829 43.3504 86.0268 43.7248 85.9519 44.0525C85.877 44.3801 85.774 44.6516 85.643 44.8669C85.5868 44.9605 85.5213 45.0354 85.4557 45.0915H84.295C84.295 45.0915 84.2107 45.0915 84.1639 45.0915L85.1468 45.26C85.2592 45.2319 85.3621 45.1758 85.4557 45.0915H89.0316L89.041 45.0821ZM169.161 45.1571H170.949C171.473 45.1571 171.876 45.0541 172.147 44.8575C172.419 44.6609 172.55 44.3614 172.55 43.9682C172.55 43.2006 172.016 42.8262 170.949 42.8262H169.161V45.1571ZM80.1575 45.1383C80.5132 45.1383 80.8315 45.0822 81.131 44.9605C81.4306 44.8388 81.6926 44.6703 81.9079 44.4456C82.1326 44.221 82.3011 43.9682 82.4228 43.6687C82.5445 43.3691 82.61 43.0508 82.61 42.6951C82.61 42.3394 82.5445 42.0211 82.4228 41.7216C82.3011 41.422 82.1233 41.1693 81.9079 40.9446C81.6833 40.72 81.4306 40.5515 81.131 40.4298C80.8315 40.3081 80.5038 40.2519 80.1575 40.2519C79.8111 40.2519 79.4741 40.3081 79.1746 40.4298C78.875 40.5515 78.6129 40.72 78.3883 40.9446C78.1636 41.1693 77.9858 41.422 77.8641 41.7216C77.7424 42.0211 77.6768 42.3394 77.6768 42.6951C77.6768 43.0508 77.7424 43.3691 77.8641 43.6687C77.9858 43.9682 78.1636 44.221 78.3883 44.4456C78.6129 44.6703 78.875 44.8388 79.1746 44.9605C79.4741 45.0822 79.8018 45.1383 80.1575 45.1383ZM177.754 45.1383C178.11 45.1383 178.428 45.0822 178.728 44.9605C179.027 44.8388 179.289 44.6703 179.505 44.4456C179.729 44.221 179.898 43.9682 180.02 43.6687C180.141 43.3691 180.207 43.0508 180.207 42.6951C180.207 42.3394 180.141 42.0211 180.02 41.7216C179.898 41.422 179.72 41.1693 179.505 40.9446C179.28 40.72 179.027 40.5515 178.728 40.4298C178.428 40.3081 178.101 40.2519 177.754 40.2519C177.408 40.2519 177.071 40.3081 176.771 40.4298C176.472 40.5515 176.21 40.72 175.985 40.9446C175.76 41.1693 175.592 41.422 175.461 41.7216C175.339 42.0211 175.274 42.3394 175.274 42.6951C175.274 43.0508 175.339 43.3691 175.461 43.6687C175.583 43.9682 175.76 44.221 175.985 44.4456C176.21 44.6703 176.472 44.8388 176.771 44.9605C177.071 45.0822 177.399 45.1383 177.754 45.1383ZM143.372 40.4391L143.55 40.0273H143.184L143.362 40.4391L141.996 43.5563H141.518L141.275 44.2865H141.677L141.996 43.5563H144.738L143.372 40.4391ZM162.131 44.2865L162.449 43.5563H165.192L163.825 40.4391L164.003 40.0273H163.638L163.816 40.4391L162.449 43.5563H161.972L161.728 44.2865H162.14H162.131ZM190.111 40.4391L190.288 40.0273H189.923L190.101 40.4391L188.735 43.5563H188.248L188.004 44.2865H188.407L188.725 43.5563H191.468L190.101 40.4391H190.111ZM94.9945 44.2022C94.8541 44.2022 94.7137 44.1648 94.5826 44.0993C94.4516 44.0337 94.358 43.9308 94.2737 43.7997C94.1988 43.6687 94.1614 43.5282 94.1614 43.3597C94.1614 43.1913 94.1988 43.0602 94.2737 42.9385C94.3486 42.8168 94.4516 42.7139 94.5826 42.639C94.7137 42.5641 94.8447 42.5266 94.9945 42.5266C95.1443 42.5266 95.2847 42.5641 95.4064 42.639C95.5281 42.7139 95.631 42.8075 95.6966 42.9385C95.7715 43.0602 95.8089 43.2006 95.8089 43.3597C95.8089 43.5189 95.7715 43.6687 95.6966 43.7997C95.6217 43.9308 95.5281 44.0244 95.4064 44.0993C95.2847 44.1648 95.1443 44.2022 94.9945 44.2022ZM150.692 44.2022C150.542 44.2022 150.411 44.1648 150.28 44.0993C150.149 44.0337 150.055 43.9308 149.971 43.7997C149.896 43.6687 149.859 43.5282 149.859 43.3597C149.859 43.1913 149.896 43.0602 149.971 42.9385C150.046 42.8168 150.149 42.7139 150.28 42.639C150.411 42.5641 150.542 42.5266 150.692 42.5266C150.842 42.5266 150.982 42.5641 151.104 42.639C151.225 42.7139 151.328 42.8075 151.394 42.9385C151.469 43.0602 151.506 43.2006 151.506 43.3597C151.506 43.5189 151.469 43.6687 151.394 43.7997C151.319 43.9308 151.225 44.0244 151.104 44.0993C150.982 44.1648 150.842 44.2022 150.692 44.2022ZM112.275 40.3081H112.687V43.1632H112.275L112.64 43.5657L112.275 43.9495H112.687V43.6125L112.649 43.5657L112.687 43.5189V43.1538H114.231C114.812 43.1538 115.251 43.0321 115.551 42.7794C115.851 42.5266 116 42.1803 116 41.731C116 41.2816 115.851 40.9259 115.551 40.6825C115.251 40.4298 114.812 40.3081 114.231 40.3081H112.687V39.8588L112.275 40.3081ZM137.456 42.302V42.7794L137.568 42.7981L137.718 42.6015L137.493 42.2926L137.465 42.3113L137.456 42.302ZM131.362 42.3862V42.7607L131.586 42.7981L131.717 42.5828L131.53 42.2832L131.362 42.3862ZM126.925 42.5641L127.065 42.7887L127.28 42.7513V42.3862L127.102 42.2832L126.925 42.5641ZM158.602 42.5454C158.358 42.4705 158.078 42.4424 157.778 42.4424L157.741 42.6858C158.059 42.6858 158.349 42.639 158.602 42.5454ZM108.493 40.2987V40.0647L108.278 40.2987H108.493ZM184.7 40.2987V40.0647L184.485 40.2987H184.7Z" fill="#715EAF"/>
<defs>
<clipPath id="clip0_15017_4995">
<rect width="51.485" height="51.485" fill="white" transform="translate(0 0.257519)"/>
</clipPath>
</defs>
</svg>
