<svg width="346" height="276" viewBox="0 0 346 276" fill="none" xmlns="http://www.w3.org/2000/svg">
<path d="M186.117 94.1153L55.5211 124.979L71.8467 194.058L202.442 163.194L186.117 94.1153Z" fill="#64D4C7"/>
<path d="M188.578 106.472L58.354 137.245C54.6772 138.114 50.9964 135.839 50.1247 132.162L47.4798 120.971C46.6152 117.298 48.8895 113.614 52.5631 112.745L182.788 81.97C186.461 81.1022 190.146 83.3765 191.014 87.0509L193.658 98.2446C194.525 101.921 192.251 105.603 188.578 106.472Z" fill="#3DC9B9"/>
<path d="M196.738 141.01L66.514 171.784C62.8404 172.652 59.1564 170.378 58.2878 166.705L55.643 155.51C54.7744 151.837 57.0495 148.153 60.7223 147.284L190.951 116.51C194.623 115.646 198.308 117.92 199.173 121.594L201.818 132.784C202.689 136.46 200.412 140.141 196.738 141.01Z" fill="#3DC9B9"/>
<path d="M204.903 175.548L74.6749 206.321C71.0013 207.19 67.3174 204.916 66.4528 201.242L63.8079 190.048C62.9362 186.375 65.2104 182.69 68.8872 181.822L199.112 151.052C202.788 150.18 206.47 152.454 207.338 156.131L209.982 167.326C210.85 170.998 208.576 174.682 204.903 175.548Z" fill="#3DC9B9"/>
<path d="M102.135 113.985L190.936 93.4745" stroke="#292D30" stroke-width="2" stroke-miterlimit="1.415" stroke-linecap="round"/>
<path d="M119.956 182.451L208.754 161.944" stroke="#292D30" stroke-width="2" stroke-miterlimit="1.415" stroke-linecap="round"/>
<path d="M220.378 149.426C218.041 150.942 216.225 153.146 214.688 155.471C213.13 157.82 211.798 160.378 211.288 163.154C210.779 165.929 211.164 168.953 212.799 171.251C215.286 174.76 220.317 175.869 224.396 174.499C228.473 173.129 231.61 169.697 233.5 165.831C235.095 162.577 235.922 158.812 235.034 155.302C233.34 148.618 226.076 145.721 220.378 149.426ZM189.312 157.806C184.85 158.4 181.099 162.061 179.863 166.391C178.513 171.149 180.162 176.713 184.123 179.68C188.077 182.647 194.135 182.566 197.793 179.237C205.015 172.664 200.192 156.358 189.312 157.806ZM245.302 171.207C244.274 175.011 243.581 179.538 246.183 182.499C249.012 185.716 254.236 185.242 258.117 183.419C261.499 181.831 264.56 179.367 266.366 176.09C269.584 170.254 267.43 161.126 260.56 158.787C252.321 155.982 247.073 164.645 245.302 171.207ZM265.819 210.98C269.731 213.774 275.441 213.567 279.293 210.7C286.993 204.972 281.837 191.526 272.525 191.756C262.512 191.996 257.238 204.851 265.819 210.98ZM211.154 188.657C205.963 190.49 200.754 193.103 197.626 197.634C194.497 202.161 194.187 209.01 198.207 212.768C202.657 216.934 209.723 215.664 215.64 217.113C219.784 218.131 223.421 220.539 227.255 222.413C231.085 224.29 235.495 225.669 239.584 224.445C243.82 223.175 246.845 219.306 248.382 215.163C251.021 208.034 249.807 199.604 245.264 193.508C235.899 180.942 223.526 184.29 211.154 188.657Z" fill="#FFCC01"/>
<path d="M200.59 75.0253C200.59 86.9322 190.936 96.5807 179.034 96.5807C167.13 96.5807 157.477 86.9322 157.477 75.0253C157.477 63.1216 167.13 53.473 179.034 53.473C190.936 53.473 200.59 63.1216 200.59 75.0253Z" fill="#DDEDF5"/>
<path d="M48.5803 263.75C48.5803 269.792 43.6827 274.69 37.64 274.69C31.5981 274.69 26.7006 269.792 26.7006 263.75C26.7006 257.707 31.5981 252.809 37.64 252.809C43.6827 252.809 48.5803 257.707 48.5803 263.75Z" stroke="#DDEDF5" stroke-width="2" stroke-miterlimit="1.415"/>
<path d="M222.142 98.9386C222.142 110.846 212.493 120.496 200.59 120.496C188.683 120.496 179.034 110.846 179.034 98.9386C179.034 87.0365 188.683 77.3832 200.59 77.3832C212.493 77.3832 222.142 87.0365 222.142 98.9386Z" fill="#DDEDF5"/>
<path d="M92.0889 220.048C92.0889 231.955 82.4388 241.609 70.5327 241.609C58.6266 241.609 48.9796 231.955 48.9796 220.048C48.9796 208.146 58.6258 198.495 70.5327 198.495C82.4388 198.495 92.0889 208.146 92.0889 220.048Z" fill="#DDEDF5"/>
<path d="M19.7319 80.9181L14.3036 78.9267L12.3091 73.496C11.7895 72.0791 9.78059 72.0791 9.25704 73.496L7.26565 78.9267L1.83735 80.9181C0.416522 81.4416 0.416522 83.4473 1.83735 83.9709L7.26565 85.9607L9.25704 91.3898C9.77979 92.8098 11.7895 92.8098 12.3091 91.3898L14.3036 85.9607L19.7319 83.9709C21.152 83.4473 21.152 81.4408 19.7319 80.9181Z" fill="#DDEDF5"/>
<path d="M36.5755 115.794L31.1472 113.803L29.1558 108.374C28.633 106.951 26.6233 106.951 26.1037 108.374L24.1092 113.803L18.6809 115.794C17.26 116.318 17.26 118.322 18.6809 118.846L24.1092 120.837L26.1037 126.266C26.6233 127.687 28.6322 127.687 29.1558 126.266L31.1472 120.837L36.5755 118.846C37.9963 118.322 37.9963 116.318 36.5755 115.794Z" fill="#DDEDF5"/>
</svg>
