<svg width="64" height="64" viewBox="0 0 64 64" fill="none" xmlns="http://www.w3.org/2000/svg">
<path d="M3.78526 46.7958C4.66398 46.8718 5.66909 47.0727 6.09223 47.8416C6.55199 48.6771 6.0501 49.7317 5.36833 50.4024C4.77432 50.988 4.02099 51.4378 3.19376 51.5653C1.71953 51.7923 -0.0352384 50.6457 0.000538955 49.0342C0.0440068 47.1002 2.2689 46.6658 3.78526 46.7958ZM1.1185 39.9322C1.61738 39.5609 2.21991 39.3501 2.82696 39.2064C3.44119 39.0601 4.08218 38.9771 4.70444 39.082C5.3267 39.1869 5.93274 39.4986 6.29135 40.0145C6.83804 40.8019 6.6854 41.9361 6.08321 42.683C5.48218 43.43 4.51903 43.8221 3.56056 43.9232C2.75457 44.0073 1.89875 43.8931 1.22934 43.4403C-0.0471091 42.5771 -0.0986023 40.8387 1.1185 39.9322ZM5.26835 34.0881C5.7358 33.2016 6.79374 32.697 7.80002 32.7705C8.90377 32.8505 9.94734 33.6199 10.2678 34.6719C10.5877 35.7239 10.1052 36.9826 9.12429 37.4922C7.18662 38.4984 4.12782 36.2481 5.26835 34.0881ZM10.5738 54.112C10.8603 55.1404 10.3787 56.3169 9.47972 56.9031C7.6835 58.0737 5.2518 55.972 6.015 54.0464C6.8352 51.9736 9.94433 51.8533 10.5738 54.112ZM10.0782 40.9988C10.8625 40.0548 11.8129 39.1676 13.0053 38.8598C14.1985 38.5517 15.6624 39.0095 16.1447 40.1348C16.6775 41.3806 15.8678 42.7588 15.7182 44.1047C15.6141 45.0472 15.8409 45.99 15.9414 46.9333C16.0414 47.8761 15.9917 48.9024 15.4205 49.6622C14.8283 50.4487 13.782 50.7861 12.793 50.7902C11.0904 50.7977 9.41034 49.9021 8.47745 48.4891C6.55534 45.576 8.20896 43.2482 10.0782 40.9988Z" fill="#FFCC01"/>
<path d="M16.5043 45.831L1.70093 12.8258C0.318821 9.7423 1.71548 6.13165 4.82176 4.75907L13.8175 0.785042C14.4193 0.518557 15.1238 0.787529 15.3917 1.38488C15.66 1.98239 15.389 2.68245 14.7873 2.94794L5.79244 6.92198L6.5349 8.57713L15.5298 4.60392C16.132 4.33744 16.8371 4.60642 17.1046 5.20377C17.3725 5.80046 17.1016 6.50051 16.5003 6.76617L7.50457 10.741L8.24754 12.3962L17.2424 8.42216C17.8443 8.1565 18.5498 8.42465 18.8174 9.02199C19.0849 9.61951 18.8148 10.3196 18.2129 10.5852L9.21804 14.5593L9.95984 16.2152L18.9555 12.2412C19.5577 11.9747 20.2622 12.2437 20.5297 12.841C20.7984 13.4386 20.5276 14.1386 19.9254 14.4043L10.9305 18.3783L11.6733 20.0335L20.6682 16.0603C21.27 15.7938 21.9756 16.0628 22.243 16.6601C22.5105 17.2568 22.2397 17.9569 21.6385 18.2225L12.643 22.1974L13.3855 23.8525L22.3803 19.8785C22.9825 19.6128 23.6877 19.8808 23.9552 20.4783C24.223 21.0758 23.953 21.7759 23.3508 22.0414L14.3551 26.0154L15.0988 27.6714L24.0936 23.6974C24.6946 23.4309 25.4 23.6999 25.6685 24.2972C25.936 24.8947 25.6651 25.5948 25.0641 25.8603L16.0684 29.8343L16.8109 31.4895L25.8057 27.5154C26.4079 27.2498 27.1131 27.5188 27.3808 28.1161C27.6485 28.7128 27.3774 29.4129 26.7764 29.6783L17.7806 33.6532L18.5234 35.3084L27.5191 31.3343C28.1202 31.0687 28.8256 31.3368 29.0933 31.9342C29.3618 32.5317 29.0908 33.2316 28.4887 33.4972L19.4939 37.4713L20.2357 39.1271L29.2315 35.1524C29.8335 34.8867 30.5381 35.1555 30.8064 35.7531C31.0741 36.3497 30.8032 37.0498 30.2012 37.3161L21.2062 41.2902L21.949 42.9455L30.9438 38.9711C31.5459 38.7056 32.251 38.9744 32.5187 39.5721C32.7864 40.1688 32.5162 40.8687 31.9143 41.1342L22.9186 45.1092L23.6611 46.7642L32.657 42.7902C33.2582 42.5247 33.9635 42.7928 34.2312 43.3902C34.4997 43.9875 34.2287 44.6878 33.6268 44.9532L24.6318 48.9271C21.5253 50.3007 17.8874 48.9135 16.5043 45.831Z" fill="white"/>
<path d="M38.705 30.3359C41.9256 32.3819 44.3116 35.685 45.2285 39.369C45.5336 40.5948 45.6605 41.9698 45.0015 43.0494C44.3426 44.1289 42.6333 44.6066 41.7743 43.6759C40.8722 42.6991 41.6497 40.9467 42.914 40.5189C44.1782 40.0908 45.5766 40.6263 46.6756 41.3781C48.7362 42.7869 50.2201 44.9999 50.7342 47.4296C51.0076 48.722 50.9653 50.2051 50.0777 51.1881C49.1893 52.1712 47.2573 52.178 46.7318 50.9644C46.26 49.8746 47.2589 48.5832 48.4344 48.363C49.6082 48.1426 50.7936 48.6948 51.7674 49.3836C53.8092 50.829 55.3477 52.9612 56.0692 55.3455C56.3565 56.2964 56.5093 57.3559 56.0945 58.2584C55.6789 59.1627 54.5179 59.7763 53.6344 59.3097C52.4067 58.6613 52.8981 56.5749 54.1802 56.0406C55.4615 55.5063 56.9379 56.0625 58.1152 56.7979C60.5207 58.3007 62.4227 60.5847 63.4551 63.2137" stroke="#292D30" stroke-miterlimit="1.415" stroke-linecap="round"/>
</svg>
