<svg width="36" height="25" viewBox="0 0 36 25" fill="none" xmlns="http://www.w3.org/2000/svg">
<path d="M20.6384 6.24731C20.7501 7.53923 21.0457 9.01696 22.1766 9.63908C23.4054 10.315 24.9565 9.57714 25.9429 8.57477C26.8042 7.70145 27.4658 6.59388 27.6532 5.37767C27.9871 3.21022 26.3007 0.630319 23.9305 0.68292C21.0862 0.746828 20.4473 4.01792 20.6384 6.24731ZM10.5436 2.32657C9.99746 3.06004 9.68753 3.9459 9.47619 4.83839C9.26094 5.74145 9.13892 6.68385 9.29315 7.59871C9.44739 8.51357 9.90595 9.40459 10.6647 9.93183C11.8227 10.7356 13.491 10.5112 14.5894 9.62581C15.6881 8.74216 16.2648 7.32612 16.4134 5.91695C16.5372 4.73196 16.3693 3.47372 15.7033 2.48954C14.4337 0.612867 11.8769 0.537161 10.5436 2.32657ZM1.94835 8.42779C0.644411 9.11504 -0.0977268 10.6705 0.0103855 12.1499C0.128016 13.7727 1.25965 15.307 2.8069 15.7781C4.35415 16.2484 6.20549 15.539 6.95495 14.0969C8.43485 11.2481 5.12509 6.75095 1.94835 8.42779ZM31.3988 16.228C32.9114 16.6493 34.6417 15.9411 35.5039 14.6195C37.2257 11.9786 34.1346 8.40345 31.3024 9.52552C28.2538 10.7314 28.0769 15.3025 31.3988 16.228ZM12.1124 15.4994C10.724 16.6525 9.41908 18.0498 8.96638 19.8029C8.51319 21.5571 9.1865 23.7093 10.8416 24.4185C12.6739 25.2018 14.701 24.0114 16.6804 23.7914C18.0666 23.6383 19.4533 23.9718 20.8407 24.1196C22.2273 24.2666 23.7368 24.1936 24.8542 23.3537C26.011 22.483 26.5072 20.9448 26.5133 19.4907C26.5242 16.9875 25.2071 14.5174 23.1288 13.1459C18.8444 10.3199 15.4207 12.7511 12.1124 15.4994Z" fill="#3DC9B9"/>
</svg>
