<svg width="356" height="346" viewBox="0 0 356 346" fill="none" xmlns="http://www.w3.org/2000/svg">
<path d="M169.615 89.6314C170.863 88.1062 173.043 88.2519 174.491 89.9546L174.883 90.4144L175.224 90.0047C176.467 88.4796 178.652 88.6252 180.1 90.3279C181.548 92.0306 181.707 94.6438 180.46 96.1644L180.123 96.5787L180.127 96.5832C180.127 96.5832 177.305 102.283 175.611 102.101C173.922 101.914 169.975 95.4678 169.975 95.4678C168.532 93.7651 168.368 91.1519 169.615 89.6314Z" fill="#C7A3CD"/>
<path fill-rule="evenodd" clip-rule="evenodd" d="M161.316 69.5328C159.253 64.065 159.435 56.7353 153.385 57.054C147.125 57.3818 123.77 59.4806 111.505 44.5115C105.013 36.5945 123.205 34.2727 105.505 3.77002C105.505 3.77002 87.3489 10.7902 73.2175 35.3516C69.3842 42.0167 65.8423 46.6785 63.0425 56.8082C61.8133 61.2697 60.6796 65.8315 59.6826 70.466C56.0496 87.3609 63.0241 105.025 69.3432 118.301C72.9716 125.922 61.7085 127.074 62.528 120.709C63.3247 114.522 55.8129 110.98 54.051 120.345C48.3602 150.565 47.09 191.316 58.3897 228.893C67.8182 260.252 84.7903 250.86 83.6977 256.814C79.3727 280.301 77.6974 311.123 76.755 323.775C75.3983 341.917 96.6908 343.524 99.641 328.364C101.426 319.195 109.962 284.613 117.05 274.155C131.614 252.685 147.312 245.984 168.213 255.635C188.923 265.2 184.47 303.502 185.363 312.188C186.696 325.177 202.822 327.635 207.989 313.153C211.832 302.391 211.495 256.801 244.246 261.148C272.309 264.877 270.875 320.192 272.523 332.224C274.576 347.234 296.488 347.503 296.114 329.502C294.498 251.101 281.906 232.044 272.108 214.434C271.471 213.291 270.825 213.382 274.248 211.507C324.91 183.763 346.931 146.581 352.626 114.303C359.583 74.8548 336.464 83.7552 336.464 83.7552C331.252 110.466 325.861 161.177 262.908 191.188C239.644 202.278 214.049 194.949 191.768 192.336V192.34C145.117 186.868 121.735 174.594 118.712 165.867C117.847 163.363 110.23 141.474 117.091 142.32C140.401 145.198 163.469 126.55 169.569 116.543C172.46 111.804 175.356 106.596 172.934 104.224C165.814 97.2583 163.077 87.7342 168.204 87.0741C179.963 85.5581 165.977 81.8567 161.316 69.5328ZM47.741 220.694C46.6939 216.528 42.5237 217.689 41.645 217.757C-2.16493 221.272 -6.74941 286.93 11.6432 285.664C26.198 284.663 29.1298 243.598 35.6901 244.19C42.1412 244.773 48.1917 245.214 53.8507 245.542C55.3257 245.629 56.8919 244.363 55.0754 241.181C53.2589 237.998 51.5288 233.983 49.9991 228.893C49.1796 226.175 48.4284 223.439 47.741 220.694ZM151.96 11.2955C151.96 11.2955 118.921 19.4401 118.047 38.7251C117.615 48.272 147.202 55.2967 150.954 48.3494C154.705 41.402 143.091 37.118 151.96 11.2955Z" fill="#FFCC01"/>
</svg>
