<svg width="364" height="365" viewBox="0 0 364 365" fill="none" xmlns="http://www.w3.org/2000/svg">
<g clip-path="url(#clip0_17017_1666)">
<path d="M125.495 93.7083C120.581 89.3098 113.03 89.7301 108.636 94.6443L107.447 95.9768L106.115 94.7876C101.201 90.3891 93.6501 90.8094 89.2564 95.7237C84.8579 100.638 85.2782 108.188 90.1924 112.582L91.5249 113.771L91.5105 113.79C91.5105 113.79 103.488 130.252 109.31 129.713C115.132 129.173 126.441 110.562 126.441 110.562C130.839 105.648 130.419 98.0972 125.504 93.7035L125.495 93.7083Z" fill="#C7A3CD"/>
<path fill-rule="evenodd" clip-rule="evenodd" d="M137.205 96.4357C137.152 92.3429 140.701 91.3782 142.873 91.1919C157 89.9789 171.7 88.4506 182.57 86.6788C211.582 81.9412 240.314 83.4217 249.278 67.4802C254.402 58.3728 233.245 42.2355 255.405 4.06274C255.405 4.06274 280.635 33.7776 294.017 82.2135C295.273 86.7695 296.429 91.4211 297.446 96.1539C301.157 113.399 298.769 129.25 292.317 142.799C288.611 150.579 300.106 151.758 299.27 145.258C298.458 138.945 306.124 135.33 307.924 144.886C313.731 175.737 315.03 217.33 303.492 255.689C293.869 287.696 276.542 278.106 277.66 284.186C282.073 308.16 283.783 328.71 284.747 341.624C286.127 360.144 264.398 361.782 261.384 346.304C259.565 336.948 250.854 312.558 243.614 301.885C228.751 279.969 212.729 273.13 191.391 282.982C170.253 292.744 174.8 320.93 173.887 329.794C172.526 343.052 156.064 345.559 150.787 330.778C146.866 319.794 147.21 284.166 113.779 288.608C85.1392 292.409 86.6006 337.961 84.9195 350.244C82.823 365.565 60.458 365.842 60.8353 347.465C62.483 267.437 75.3393 258.898 85.3398 240.922C85.9893 239.752 87.1164 237.498 83.1573 237.932C49.5263 241.643 8.25409 206.169 3.15357 177.27C-3.948 137.006 19.6491 107.535 19.6491 107.535C24.9693 134.799 30.471 186.564 94.729 217.196C118.479 228.514 144.598 231.948 167.345 229.283C214.964 223.7 244.201 200.256 247.286 191.349C248.17 188.794 248.404 183.398 241.665 185.504C232.257 188.441 222.419 189.74 212.767 189.119C178.849 186.946 142.372 174.983 118.121 140.425C117.624 139.718 114.725 134.518 117.213 133.223C127.333 127.951 137.357 108.437 137.205 96.4357ZM310.727 247.317C311.792 243.066 316.052 244.251 316.95 244.322C361.671 247.914 366.351 303.656 347.577 302.362C332.72 301.34 329.73 270.699 323.035 271.301C316.444 271.897 310.269 272.346 304.495 272.681C302.991 272.767 301.391 271.477 303.249 268.23C305.106 264.982 306.869 260.885 308.43 255.689C309.266 252.914 310.03 250.12 310.737 247.317H310.727ZM219.625 19.0252C219.625 19.0252 241.708 41.8868 242.601 61.5726C243.04 71.3151 212.843 78.4884 209.013 71.3963C205.183 64.3043 210.155 40.3443 219.63 19.0252H219.625Z" fill="#FFCC01"/>
</g>
<defs>
<clipPath id="clip0_17017_1666">
<rect width="357.705" height="357.705" fill="white" transform="translate(0.436523 3.93359)"/>
</clipPath>
</defs>
</svg>
